<svg width="60" height="60" viewBox="0 0 60 60" fill="none" xmlns="http://www.w3.org/2000/svg">
<path d="M46.9455 28.3594C39.7472 28.3594 33.891 34.2156 33.891 41.4138C33.891 48.6122 39.7472 54.4689 46.9455 54.4689C54.1438 54.4687 60 48.6127 60 41.4138C60 34.2156 54.1433 28.3594 46.9455 28.3594ZM50.711 43.1716H48.7033V45.1794C48.7033 46.1503 47.9164 46.9372 46.9455 46.9372C45.9745 46.9372 45.1877 46.1503 45.1877 45.1794V43.1716H43.1799C42.2091 43.1716 41.4221 42.3848 41.4221 41.4138C41.4221 40.4435 42.2091 39.656 43.1799 39.656H45.1877V37.6484C45.1877 36.6778 45.9745 35.8905 46.9455 35.8905C47.9164 35.8905 48.7033 36.6778 48.7033 37.6484V39.656H50.711C51.682 39.656 52.4688 40.4435 52.4688 41.4138C52.4688 42.3848 51.682 43.1716 50.711 43.1716ZM18.7034 26.2266C25.9016 26.2266 31.7578 20.3701 31.7578 13.1718C31.7578 5.9734 25.9011 0.117188 18.7034 0.117188C11.505 0.117188 5.64832 5.9734 5.64832 13.1716C5.64832 20.3705 11.505 26.2266 18.7034 26.2266Z" fill="#20C6B1"/>
<path d="M34.1547 30.8907C32.8328 28.9556 31.162 27.2839 29.2277 25.9609C26.364 28.3221 22.6964 29.7421 18.7034 29.7421C14.7102 29.7421 11.0426 28.3221 8.1784 25.9609C3.24504 29.332 0 35.0008 0 41.4136V48.0037C0 51.5687 2.89992 54.4686 6.46453 54.4686H30.9411C32.514 54.4686 33.957 53.9037 35.0789 52.9666C32.1703 49.9792 30.375 45.9025 30.375 41.4135C30.375 37.4214 31.7944 33.7544 34.1547 30.8907Z" fill="#20C6B1"/>
</svg>
