<svg width="29" height="16" viewBox="0 0 29 16" fill="none" xmlns="http://www.w3.org/2000/svg">
<path d="M1.5 7C0.947715 7 0.5 7.44772 0.5 8C0.5 8.55228 0.947715 9 1.5 9V7ZM28.2071 8.70711C28.5976 8.31658 28.5976 7.68342 28.2071 7.29289L21.8431 0.928932C21.4526 0.538408 20.8195 0.538408 20.4289 0.928932C20.0384 1.31946 20.0384 1.95262 20.4289 2.34315L26.0858 8L20.4289 13.6569C20.0384 14.0474 20.0384 14.6805 20.4289 15.0711C20.8195 15.4616 21.4526 15.4616 21.8431 15.0711L28.2071 8.70711ZM1.5 9H27.5V7H1.5V9Z" fill="white"/>
</svg>
