<svg width="281" height="281" viewBox="0 0 281 281" fill="none" xmlns="http://www.w3.org/2000/svg">
<path fill-rule="evenodd" clip-rule="evenodd" d="M31.2222 281H249.778C267.021 281 281 267.021 281 249.778V31.2222C281 13.9787 267.021 0 249.778 0H31.2222C13.9787 0 0 13.9787 0 31.2222V249.778C0 267.021 13.9787 281 31.2222 281Z" fill="#0863FF"/>
<path fill-rule="evenodd" clip-rule="evenodd" d="M166.539 101.495H216.148V87.2824H166.539V101.495ZM178.292 132.508C175.13 135.724 173.137 140.081 172.322 145.58H210.905C210.498 139.712 208.493 135.278 204.946 132.225C201.356 129.193 196.939 127.683 191.652 127.683C185.925 127.683 181.453 129.291 178.292 132.508ZM211.775 113.427C217.756 116.056 222.68 120.229 226.557 125.923C230.092 130.943 232.361 136.767 233.397 143.385C234.003 147.253 234.245 152.86 234.146 160.151H171.771C172.145 168.616 175.097 174.56 180.737 177.961C184.151 180.08 188.26 181.145 193.084 181.145C198.162 181.145 202.314 179.852 205.497 177.276C207.249 175.875 208.791 173.94 210.112 171.463H232.967C232.361 176.461 229.586 181.558 224.673 186.73C217.007 194.934 206.268 199.041 192.467 199.041C181.067 199.041 171.011 195.586 162.321 188.653C153.586 181.731 149.246 170.452 149.246 154.848C149.246 140.212 153.179 128.987 161.032 121.174C168.907 113.383 179.096 109.46 191.641 109.46C199.098 109.46 205.806 110.786 211.775 113.427ZM69.9093 145.884V176.342H98.0182C103.041 176.342 106.962 175.668 109.749 174.332C114.826 171.832 117.36 167.095 117.36 160.075C117.36 154.12 114.914 150.046 109.991 147.818C107.237 146.579 103.371 145.927 98.4147 145.884H69.9093ZM69.9093 101.789V126.988H98.0622C103.074 126.988 107.16 126.042 110.31 124.151C113.438 122.261 115.013 118.914 115.013 114.133C115.013 108.798 112.943 105.288 108.801 103.571C105.211 102.386 100.651 101.789 95.1103 101.789H69.9093ZM132.78 94.1282C136.315 98.9853 138.089 104.788 138.089 111.558C138.089 118.523 136.315 124.141 132.736 128.378C130.731 130.747 127.79 132.921 123.902 134.876C129.806 137.006 134.256 140.364 137.285 144.96C140.281 149.546 141.79 155.131 141.79 161.694C141.79 168.464 140.071 174.538 136.624 179.906C134.443 183.459 131.711 186.458 128.429 188.892C124.739 191.685 120.389 193.587 115.355 194.63C110.321 195.662 104.88 196.162 98.9984 196.162H46.834V81.958H102.776C116.897 82.1645 126.887 86.2176 132.78 94.1282Z" fill="white"/>
</svg>
