<svg width="55" height="55" viewBox="0 0 55 55" fill="none" xmlns="http://www.w3.org/2000/svg">
<rect width="55" height="55" rx="8" fill="#20C6B1"/>
<g clip-path="url(#clip0_2462_4340)">
<path d="M44.2939 13.3414L41.7181 10.7656C40.8561 9.90365 39.4535 9.90365 38.5914 10.7656C38.4984 10.8624 38.447 10.9917 38.4484 11.1259C38.4497 11.2601 38.5036 11.3885 38.5985 11.4834C38.6934 11.5783 38.8217 11.6322 38.9559 11.6335C39.0901 11.6349 39.2195 11.5835 39.3163 11.4905C39.7786 11.0282 40.5307 11.0282 40.9932 11.4905L43.569 14.0663C44.0314 14.5287 44.0314 15.2811 43.5691 15.7434L41.7029 17.6095L37.45 13.3566L37.8204 12.9862C37.868 12.9386 37.9058 12.8821 37.9315 12.8199C37.9573 12.7577 37.9706 12.6911 37.9706 12.6238C37.9706 12.5565 37.9573 12.4898 37.9316 12.4277C37.9058 12.3655 37.8681 12.309 37.8205 12.2614C37.7729 12.2138 37.7164 12.176 37.6542 12.1503C37.592 12.1245 37.5254 12.1112 37.4581 12.1112C37.3908 12.1112 37.3241 12.1245 37.262 12.1502C37.1998 12.176 37.1433 12.2137 37.0957 12.2613L30.1013 19.2555C29.7746 19.1253 29.4414 19.0122 29.1029 18.9167L28.7154 16.1868C28.6981 16.0646 28.6372 15.9527 28.544 15.8718C28.4507 15.7909 28.3314 15.7463 28.2079 15.7463H24.4586C24.3352 15.7463 24.2158 15.7909 24.1226 15.8718C24.0294 15.9527 23.9685 16.0646 23.9511 16.1868L23.5637 18.9168C22.7907 19.1341 22.0462 19.4424 21.3459 19.8354L19.1415 18.1791C19.0428 18.105 18.9206 18.0689 18.7975 18.0776C18.6744 18.0863 18.5585 18.1391 18.4712 18.2264L15.82 20.8775C15.7327 20.9648 15.6798 21.0807 15.6711 21.2038C15.6624 21.327 15.6984 21.4491 15.7726 21.5479L17.429 23.7524C17.0359 24.4526 16.7276 25.197 16.5103 25.97L13.7803 26.3576C13.658 26.3749 13.5462 26.4358 13.4652 26.529C13.3843 26.6223 13.3398 26.7416 13.3398 26.8651V30.6144C13.3398 30.7378 13.3843 30.8571 13.4653 30.9504C13.5462 31.0436 13.658 31.1045 13.7803 31.1219L16.5105 31.5093C16.6062 31.8476 16.7194 32.1807 16.8495 32.5074L12.9254 36.4314C12.8589 36.4982 12.8121 36.582 12.7902 36.6737L11.3575 40.7274L10.0889 44.3166C10.0566 44.4078 10.0509 44.5063 10.0722 44.6007C10.0936 44.695 10.1413 44.7814 10.2097 44.8499C10.2781 44.9182 10.3645 44.9659 10.4589 44.9872C10.5532 45.0086 10.6517 45.0028 10.7429 44.9706L18.3857 42.2692C18.4775 42.2474 18.5614 42.2006 18.6281 42.1339L22.5466 38.2154C22.8792 38.3488 23.2187 38.4645 23.5635 38.562L23.9511 41.2922C23.9684 41.4145 24.0293 41.5263 24.1225 41.6073C24.2158 41.6882 24.3351 41.7327 24.4586 41.7327H28.2079C28.3313 41.7327 28.4506 41.6882 28.5439 41.6072C28.6371 41.5263 28.698 41.4145 28.7154 41.2922L29.1028 38.5623C29.8758 38.345 30.6203 38.0366 31.3205 37.6437L33.5251 39.3C33.6238 39.3741 33.7459 39.4101 33.869 39.4014C33.9922 39.3927 34.1081 39.3399 34.1954 39.2527L36.8465 36.6014C36.9338 36.5141 36.9866 36.3983 36.9953 36.2751C37.004 36.152 36.968 36.0298 36.8938 35.9311L35.2375 33.7267C35.6305 33.0265 35.9389 32.282 36.1561 31.509L38.8861 31.1215C39.0083 31.1042 39.1202 31.0433 39.2011 30.95C39.282 30.8568 39.3266 30.7375 39.3266 30.614V26.8647C39.3266 26.7413 39.282 26.622 39.2011 26.5287C39.1201 26.4355 39.0083 26.3746 38.8861 26.3572L36.1561 25.9697C36.0587 25.6247 35.9431 25.285 35.8098 24.9522L44.294 16.4681C45.1559 15.6062 45.1559 14.2035 44.2939 13.3414ZM11.4128 43.6465L12.053 41.8353L13.2241 43.0064L11.4128 43.6465ZM14.2952 42.6278L12.4316 40.7643L13.5028 37.7336L17.3259 41.5566L14.2952 42.6278ZM38.3015 27.3098V30.1693L35.675 30.542C35.5736 30.5564 35.4788 30.6009 35.4029 30.6696C35.327 30.7384 35.2734 30.8283 35.2491 30.9278C35.0278 31.8334 34.669 32.6997 34.185 33.4965C34.1318 33.584 34.1061 33.6855 34.1112 33.7878C34.1162 33.8901 34.1518 33.9885 34.2134 34.0703L35.807 36.1913L33.7851 38.2132L31.6642 36.6196C31.5823 36.5581 31.4839 36.5225 31.3816 36.5174C31.2793 36.5123 31.1779 36.5381 31.0904 36.5912C30.2936 37.0752 29.4273 37.4341 28.5216 37.6553C28.4221 37.6796 28.3322 37.7332 28.2635 37.8091C28.1947 37.885 28.1503 37.9797 28.1359 38.0811L27.7631 40.7076H24.9036L24.5309 38.0811C24.5165 37.9797 24.4721 37.885 24.4033 37.8091C24.3345 37.7332 24.2446 37.6796 24.1451 37.6553C23.8744 37.589 23.6068 37.51 23.3434 37.4188L26.1448 34.6174C26.2103 34.6198 26.2725 34.621 26.3334 34.621C29.5765 34.621 32.215 31.9826 32.215 28.7395C32.215 28.5973 32.2082 28.4569 32.1982 28.3172L32.1981 28.3138C32.1979 28.3102 32.1974 28.3068 32.1971 28.3032C32.1908 28.2164 32.1826 28.1298 32.1724 28.0434L32.1722 28.042C31.842 25.2615 29.5655 23.0709 26.7469 22.874C26.7419 22.8736 26.737 22.8729 26.732 22.8726L26.7288 22.8725C26.5972 22.8632 26.4653 22.8583 26.3334 22.8578C23.0903 22.8578 20.4518 25.4962 20.4518 28.7393C20.4518 28.7922 20.4527 28.846 20.4545 28.9024L19.6636 29.6933C19.6159 29.7408 19.5781 29.7973 19.5524 29.8596C19.5266 29.9218 19.5134 29.9885 19.5135 30.0558C19.5134 30.132 19.5303 30.2072 19.563 30.276C19.5957 30.3448 19.6434 30.4054 19.7026 30.4534C19.7739 30.5113 19.8594 30.549 19.9502 30.5626C20.041 30.5762 20.1338 30.5652 20.219 30.5308C20.2824 30.505 20.3401 30.4667 20.3885 30.4182L26.8906 23.916C29.1097 24.1709 30.8885 25.9411 31.1539 28.1587L29.5493 29.7632C29.4556 29.8598 29.4036 29.9894 29.4046 30.1241C29.4056 30.2587 29.4595 30.3875 29.5547 30.4827C29.6499 30.5779 29.7787 30.6318 29.9134 30.6328C30.048 30.6339 30.1776 30.5819 30.2742 30.4881L31.1011 29.6612C30.7268 31.6011 29.195 33.1329 27.2551 33.5073L28.8191 31.9433C28.9128 31.8467 28.9648 31.7171 28.9638 31.5825C28.9628 31.4479 28.9089 31.319 28.8137 31.2238C28.7185 31.1286 28.5897 31.0747 28.455 31.0737C28.3204 31.0727 28.1908 31.1247 28.0942 31.2185L18.2657 41.0468L14.0128 36.7938L18.9331 31.8735C18.9808 31.826 19.0186 31.7695 19.0444 31.7073C19.0702 31.6451 19.0834 31.5784 19.0832 31.5111C19.0833 31.4438 19.0701 31.3771 19.0444 31.3149C19.0186 31.2527 18.9808 31.1962 18.9331 31.1487C18.8848 31.1001 18.8271 31.0619 18.7636 31.0361C18.6866 31.0049 18.6031 30.9929 18.5204 31.0011C18.4377 31.0092 18.3582 31.0374 18.2887 31.083C18.2597 31.1021 18.2328 31.1242 18.2082 31.1487L17.647 31.7099C17.5587 31.4528 17.482 31.1919 17.4173 30.9279C17.3929 30.8284 17.3394 30.7385 17.2635 30.6697C17.1876 30.601 17.0928 30.5565 16.9915 30.5421L14.3649 30.1693V27.3099L16.9915 26.937C17.0928 26.9226 17.1876 26.8782 17.2635 26.8095C17.3394 26.7408 17.3929 26.6509 17.4173 26.5514C17.6385 25.6458 17.9974 24.7795 18.4813 23.9827C18.5345 23.8951 18.5602 23.7937 18.5552 23.6914C18.5501 23.5891 18.5145 23.4907 18.453 23.4088L16.8593 21.2879L18.8813 19.266L21.0022 20.8595C21.0841 20.9211 21.1825 20.9566 21.2848 20.9617C21.3871 20.9668 21.4886 20.9411 21.5761 20.8879C22.3729 20.4039 23.2392 20.0451 24.1448 19.8238C24.2443 19.7995 24.3342 19.7459 24.4029 19.67C24.4717 19.5941 24.5161 19.4993 24.5305 19.398L24.9033 16.7714H27.7628L28.1355 19.3979C28.1499 19.4993 28.1944 19.594 28.2631 19.6699C28.3318 19.7458 28.4217 19.7994 28.5211 19.8237C29.032 19.9491 29.531 20.1185 30.0127 20.33L30.0145 20.3309C30.1082 20.3719 30.2009 20.4144 30.2925 20.4581L30.2977 20.4605C30.3845 20.502 30.4701 20.5447 30.5548 20.5884C30.5778 20.6003 30.6005 20.6127 30.6234 20.6248C30.6888 20.6593 30.754 20.694 30.818 20.7297C30.9096 20.7809 31.0003 20.8336 31.0901 20.8878C31.1776 20.941 31.2791 20.9667 31.3814 20.9616C31.4837 20.9566 31.5821 20.921 31.664 20.8594L33.785 19.2658L35.8068 21.2876L34.2132 23.4086C34.1517 23.4905 34.116 23.5889 34.111 23.6912C34.1059 23.7935 34.1317 23.895 34.1849 23.9825C34.2389 24.0715 34.2907 24.1616 34.3417 24.2523C34.3758 24.3134 34.4089 24.3755 34.442 24.4379C34.4553 24.463 34.4688 24.4879 34.4819 24.5131C34.524 24.5944 34.5649 24.6764 34.6045 24.759L34.6099 24.7702C34.6528 24.8597 34.6942 24.9498 34.7342 25.0406C34.7345 25.0414 34.7351 25.0422 34.7355 25.0431C34.9503 25.5299 35.1222 26.0346 35.2491 26.5514C35.2734 26.6508 35.327 26.7408 35.4029 26.8095C35.4788 26.8783 35.5736 26.9227 35.675 26.9371L38.3015 27.3098ZM25.3793 23.9776L21.5713 27.7856C21.9541 25.8715 23.4652 24.3604 25.3793 23.9776ZM35.3508 23.9616C35.3139 23.8913 35.2761 23.8215 35.2375 23.7522L36.8937 21.5477C36.9679 21.449 37.0039 21.3269 36.9952 21.2037C36.9865 21.0806 36.9337 20.9647 36.8464 20.8774L34.1953 18.2263C34.108 18.139 33.9921 18.0861 33.869 18.0774C33.7458 18.0687 33.6237 18.1048 33.525 18.179L31.3205 19.8353C31.2455 19.7934 31.1699 19.7525 31.0939 19.7125L34.0319 16.7745L38.2848 21.0274L35.3508 23.9616ZM39.0099 20.3026L34.757 16.0497L36.7251 14.0815L40.978 18.3345L39.0099 20.3026Z" fill="white"/>
<path d="M29.7314 21.9795C30.7102 22.371 32.7851 23.7177 33.2549 25.9728" stroke="white" stroke-width="4" stroke-linecap="round"/>
<circle cx="33.4898" cy="27.8526" r="0.469799" fill="white"/>
<path d="M44.294 13.3414L41.7183 10.7656C40.8562 9.90365 39.4536 9.90365 38.5915 10.7656C38.4985 10.8624 38.4472 10.9917 38.4485 11.1259C38.4498 11.2601 38.5037 11.3885 38.5986 11.4834C38.6935 11.5783 38.8218 11.6322 38.956 11.6335C39.0902 11.6349 39.2196 11.5835 39.3164 11.4905C39.7788 11.0282 40.5308 11.0282 40.9934 11.4905L43.5691 14.0663C44.0315 14.5287 44.0315 15.2811 43.5692 15.7434L41.703 17.6095L37.4501 13.3566L37.8205 12.9862C37.8681 12.9386 37.9059 12.8821 37.9317 12.8199C37.9574 12.7577 37.9707 12.6911 37.9707 12.6238C37.9707 12.5565 37.9574 12.4898 37.9317 12.4277C37.9059 12.3655 37.8682 12.309 37.8206 12.2614C37.773 12.2138 37.7165 12.176 37.6543 12.1503C37.5922 12.1245 37.5255 12.1112 37.4582 12.1112C37.3909 12.1112 37.3243 12.1245 37.2621 12.1502C37.1999 12.176 37.1434 12.2137 37.0958 12.2613L30.1015 19.2555C29.7747 19.1253 29.4415 19.0122 29.103 18.9167L28.7155 16.1868C28.6982 16.0646 28.6373 15.9527 28.5441 15.8718C28.4508 15.7909 28.3315 15.7463 28.208 15.7463H24.4587C24.3353 15.7463 24.216 15.7909 24.1227 15.8718C24.0295 15.9527 23.9686 16.0646 23.9512 16.1868L23.5638 18.9168C22.7908 19.1341 22.0463 19.4424 21.3461 19.8354L19.1416 18.1791C19.0429 18.105 18.9208 18.0689 18.7976 18.0776C18.6745 18.0863 18.5586 18.1391 18.4713 18.2264L15.8201 20.8775C15.7328 20.9648 15.6799 21.0807 15.6712 21.2038C15.6625 21.327 15.6986 21.4491 15.7727 21.5479L17.4291 23.7524C17.0361 24.4526 16.7277 25.197 16.5104 25.97L13.7804 26.3576C13.6582 26.3749 13.5463 26.4358 13.4654 26.529C13.3844 26.6223 13.3399 26.7416 13.3399 26.8651V30.6144C13.3399 30.7378 13.3845 30.8571 13.4654 30.9504C13.5463 31.0436 13.6582 31.1045 13.7804 31.1219L16.5106 31.5093C16.6063 31.8476 16.7195 32.1807 16.8496 32.5074L12.9256 36.4314C12.859 36.4982 12.8122 36.582 12.7903 36.6737L11.3576 40.7274L10.089 44.3166C10.0567 44.4078 10.051 44.5063 10.0724 44.6007C10.0937 44.695 10.1414 44.7814 10.2098 44.8499C10.2782 44.9182 10.3646 44.9659 10.459 44.9872C10.5533 45.0086 10.6518 45.0028 10.743 44.9706L18.3858 42.2692C18.4776 42.2474 18.5615 42.2006 18.6282 42.1339L22.5467 38.2154C22.8794 38.3488 23.2188 38.4645 23.5636 38.562L23.9512 41.2922C23.9685 41.4145 24.0294 41.5263 24.1227 41.6073C24.2159 41.6882 24.3352 41.7327 24.4587 41.7327H28.208C28.3314 41.7327 28.4507 41.6882 28.544 41.6072C28.6372 41.5263 28.6981 41.4145 28.7155 41.2922L29.1029 38.5623C29.8759 38.345 30.6204 38.0366 31.3207 37.6437L33.5252 39.3C33.6239 39.3741 33.746 39.4101 33.8692 39.4014C33.9923 39.3927 34.1082 39.3399 34.1955 39.2527L36.8466 36.6014C36.9339 36.5141 36.9868 36.3983 36.9954 36.2751C37.0041 36.152 36.9681 36.0298 36.8939 35.9311L35.2376 33.7267C35.6306 33.0265 35.939 32.282 36.1563 31.509L38.8862 31.1215C39.0084 31.1042 39.1203 31.0433 39.2012 30.95C39.2822 30.8568 39.3267 30.7375 39.3267 30.614V26.8647C39.3267 26.7413 39.2821 26.622 39.2012 26.5287C39.1203 26.4355 39.0084 26.3746 38.8862 26.3572L36.1563 25.9697C36.0588 25.6247 35.9432 25.285 35.81 24.9522L44.2941 16.4681C45.156 15.6062 45.156 14.2035 44.294 13.3414ZM11.413 43.6465L12.0532 41.8353L13.2242 43.0064L11.413 43.6465ZM14.2953 42.6278L12.4317 40.7643L13.5029 37.7336L17.3261 41.5566L14.2953 42.6278ZM38.3016 27.3098V30.1693L35.6751 30.542C35.5737 30.5564 35.4789 30.6009 35.403 30.6696C35.3271 30.7384 35.2735 30.8283 35.2492 30.9278C35.0279 31.8334 34.6691 32.6997 34.1851 33.4965C34.132 33.584 34.1062 33.6855 34.1113 33.7878C34.1164 33.8901 34.1519 33.9885 34.2135 34.0703L35.8071 36.1913L33.7852 38.2132L31.6643 36.6196C31.5824 36.5581 31.484 36.5225 31.3817 36.5174C31.2795 36.5123 31.178 36.5381 31.0905 36.5912C30.2937 37.0752 29.4274 37.4341 28.5217 37.6553C28.4223 37.6796 28.3323 37.7332 28.2636 37.8091C28.1948 37.885 28.1504 37.9797 28.136 38.0811L27.7632 40.7076H24.9038L24.531 38.0811C24.5166 37.9797 24.4722 37.885 24.4034 37.8091C24.3347 37.7332 24.2447 37.6796 24.1452 37.6553C23.8745 37.589 23.6069 37.51 23.3435 37.4188L26.145 34.6174C26.2105 34.6198 26.2726 34.621 26.3336 34.621C29.5767 34.621 32.2151 31.9826 32.2151 28.7395C32.2151 28.5973 32.2083 28.4569 32.1983 28.3172L32.1983 28.3138C32.198 28.3102 32.1975 28.3068 32.1972 28.3032C32.1909 28.2164 32.1827 28.1298 32.1726 28.0434L32.1723 28.042C31.8421 25.2615 29.5657 23.0709 26.747 22.874C26.742 22.8736 26.7372 22.8729 26.7322 22.8726L26.729 22.8725C26.5973 22.8632 26.4654 22.8583 26.3335 22.8578C23.0904 22.8578 20.4519 25.4962 20.4519 28.7393C20.4519 28.7922 20.4528 28.846 20.4547 28.9024L19.6637 29.6933C19.6161 29.7408 19.5783 29.7973 19.5525 29.8596C19.5267 29.9218 19.5135 29.9885 19.5136 30.0558C19.5135 30.132 19.5304 30.2072 19.5631 30.276C19.5958 30.3448 19.6435 30.4054 19.7027 30.4534C19.774 30.5113 19.8595 30.549 19.9503 30.5626C20.0412 30.5762 20.134 30.5652 20.2191 30.5308C20.2826 30.505 20.3402 30.4667 20.3886 30.4182L26.8908 23.916C29.1098 24.1709 30.8886 25.9411 31.1541 28.1587L29.5495 29.7632C29.4557 29.8598 29.4037 29.9894 29.4047 30.1241C29.4057 30.2587 29.4597 30.3875 29.5548 30.4827C29.65 30.5779 29.7789 30.6318 29.9135 30.6328C30.0481 30.6339 30.1777 30.5819 30.2743 30.4881L31.1012 29.6612C30.7269 31.6011 29.1952 33.1329 27.2552 33.5073L28.8192 31.9433C28.9129 31.8467 28.9649 31.7171 28.9639 31.5825C28.9629 31.4479 28.909 31.319 28.8138 31.2238C28.7186 31.1286 28.5898 31.0747 28.4552 31.0737C28.3205 31.0727 28.1909 31.1247 28.0943 31.2185L18.2659 41.0468L14.0129 36.7938L18.9333 31.8735C18.9809 31.826 19.0188 31.7695 19.0445 31.7073C19.0703 31.6451 19.0835 31.5784 19.0834 31.5111C19.0835 31.4438 19.0702 31.3771 19.0445 31.3149C19.0187 31.2527 18.9809 31.1962 18.9333 31.1487C18.8849 31.1001 18.8272 31.0619 18.7637 31.0361C18.6867 31.0049 18.6032 30.9929 18.5205 31.0011C18.4378 31.0092 18.3583 31.0374 18.2888 31.083C18.2599 31.1021 18.2329 31.1242 18.2084 31.1487L17.6471 31.7099C17.5588 31.4528 17.4821 31.1919 17.4174 30.9279C17.393 30.8284 17.3395 30.7385 17.2636 30.6697C17.1877 30.601 17.093 30.5565 16.9916 30.5421L14.3651 30.1693V27.3099L16.9916 26.937C17.0929 26.9226 17.1877 26.8782 17.2636 26.8095C17.3395 26.7408 17.393 26.6509 17.4174 26.5514C17.6386 25.6458 17.9975 24.7795 18.4815 23.9827C18.5346 23.8951 18.5603 23.7937 18.5553 23.6914C18.5502 23.5891 18.5146 23.4907 18.4531 23.4088L16.8594 21.2879L18.8814 19.266L21.0024 20.8595C21.0842 20.9211 21.1827 20.9566 21.2849 20.9617C21.3872 20.9668 21.4887 20.9411 21.5762 20.8879C22.373 20.4039 23.2393 20.0451 24.1449 19.8238C24.2444 19.7995 24.3343 19.7459 24.403 19.67C24.4718 19.5941 24.5162 19.4993 24.5307 19.398L24.9034 16.7714H27.7629L28.1357 19.3979C28.15 19.4993 28.1945 19.594 28.2632 19.6699C28.3319 19.7458 28.4218 19.7994 28.5213 19.8237C29.0321 19.9491 29.5312 20.1185 30.0128 20.33L30.0146 20.3309C30.1083 20.3719 30.201 20.4144 30.2927 20.4581L30.2978 20.4605C30.3846 20.502 30.4703 20.5447 30.555 20.5884C30.5779 20.6003 30.6006 20.6127 30.6235 20.6248C30.6889 20.6593 30.7541 20.694 30.8181 20.7297C30.9097 20.7809 31.0004 20.8336 31.0902 20.8878C31.1778 20.941 31.2792 20.9667 31.3815 20.9616C31.4838 20.9566 31.5822 20.921 31.6641 20.8594L33.7851 19.2658L35.8069 21.2876L34.2133 23.4086C34.1518 23.4905 34.1162 23.5889 34.1111 23.6912C34.106 23.7935 34.1318 23.895 34.185 23.9825C34.2391 24.0715 34.2909 24.1616 34.3418 24.2523C34.3759 24.3134 34.4091 24.3755 34.4421 24.4379C34.4554 24.463 34.4689 24.4879 34.482 24.5131C34.5241 24.5944 34.565 24.6764 34.6046 24.759L34.61 24.7702C34.6529 24.8597 34.6943 24.9498 34.7343 25.0406C34.7347 25.0414 34.7352 25.0422 34.7356 25.0431C34.9505 25.5299 35.1223 26.0346 35.2492 26.5514C35.2735 26.6508 35.3271 26.7408 35.403 26.8095C35.4789 26.8783 35.5737 26.9227 35.6751 26.9371L38.3016 27.3098ZM25.3794 23.9776L21.5714 27.7856C21.9543 25.8715 23.4653 24.3604 25.3794 23.9776ZM35.3509 23.9616C35.314 23.8913 35.2762 23.8215 35.2376 23.7522L36.8939 21.5477C36.968 21.449 37.004 21.3269 36.9953 21.2037C36.9867 21.0806 36.9338 20.9647 36.8466 20.8774L34.1954 18.2263C34.1082 18.139 33.9923 18.0861 33.8691 18.0774C33.746 18.0687 33.6238 18.1048 33.5251 18.179L31.3206 19.8353C31.2456 19.7934 31.17 19.7525 31.094 19.7125L34.0321 16.7745L38.285 21.0274L35.3509 23.9616ZM39.01 20.3026L34.7571 16.0497L36.7252 14.0815L40.9781 18.3345L39.01 20.3026Z" fill="white"/>
<path d="M29.7316 21.9795C30.7103 22.371 32.7853 23.7177 33.2551 25.9728" stroke="white" stroke-width="4" stroke-linecap="round"/>
<circle cx="33.4899" cy="27.8526" r="0.469799" fill="white"/>
</g>
<defs>
<clipPath id="clip0_2462_4340">
<rect width="35" height="35" fill="white" transform="translate(10 10)"/>
</clipPath>
</defs>
</svg>
