<svg width="50" height="52" viewBox="0 0 50 52" fill="none" xmlns="http://www.w3.org/2000/svg">
<g clip-path="url(#clip0_14_1831)">
<path d="M49.5456 19.1844L49.5716 19.1506C47.4292 17.377 45.2874 15.6025 43.1463 13.8273V9.45461C43.1463 6.84383 41.1111 4.7273 38.6008 4.7273H32.1933C29.9114 2.82473 28.307 1.47856 28.055 1.24623C27.1522 0.415815 26.0761 0.000443535 25.0004 3.54167e-07C23.9238 -0.000442827 22.8476 0.41504 21.946 1.24623C21.6939 1.47867 20.0895 2.82473 17.8077 4.7273H11.3637C8.85329 4.7273 6.81817 6.84383 6.81817 9.45461V13.8867C4.49083 15.8163 2.23093 17.6587 0.428373 19.1506L0.454261 19.1844C0.189311 19.406 0 19.713 0 20.0756V47.2705C0 49.8826 2.03608 52.0001 4.54772 52.0001H45.4545C47.9649 52.0001 50 49.8837 50 47.2728V20.0756C50 19.713 49.8106 19.406 49.5456 19.1844ZM23.453 3.0164C24.0568 2.46209 25.4505 2.00595 26.548 3.01751C26.7238 3.17927 27.469 3.80948 28.5641 4.7273H21.4361C22.5318 3.80914 23.2772 3.17839 23.453 3.0164ZM14.7727 11.8182H35.1918C35.8199 11.8182 36.3282 12.3468 36.3282 13.0001C36.3282 13.6533 35.8199 14.1819 35.1918 14.1819H14.7727C14.1446 14.1819 13.6363 13.6533 13.6363 13.0001C13.6363 12.3468 14.1446 11.8182 14.7727 11.8182ZM14.7727 18.9091H35.1918C35.8199 18.9091 36.3282 19.4377 36.3282 20.091C36.3282 20.7442 35.8199 21.2728 35.1918 21.2728H14.7727C14.1446 21.2728 13.6363 20.7442 13.6363 20.091C13.6363 19.4377 14.1446 18.9091 14.7727 18.9091ZM30.6818 27.1819C30.6819 27.3371 30.6526 27.4908 30.5955 27.6342C30.5384 27.7777 30.4547 27.908 30.3492 28.0178C30.2436 28.1275 30.1183 28.2146 29.9804 28.274C29.8425 28.3333 29.6946 28.3638 29.5454 28.3637H20.3835C19.7553 28.3637 19.2471 27.8351 19.2471 27.1819C19.2471 26.5286 19.7553 26 20.3835 26H29.5454C29.6946 25.9999 29.8425 26.0304 29.9804 26.0898C30.1183 26.1491 30.2436 26.2362 30.3492 26.3459C30.4547 26.4557 30.5384 26.586 30.5955 26.7295C30.6526 26.8729 30.6819 27.0266 30.6818 27.1819ZM26.548 37.1335C26.2739 37.3864 25.7024 37.8112 24.9644 37.8112C24.425 37.8112 23.9046 37.5839 23.4164 37.1335C19.0097 33.0732 6.74413 23.1126 2.97517 20.0641C3.86175 19.33 5.20962 18.2135 6.7827 16.9097V19.5925C6.7827 19.956 6.94356 20.2999 7.21885 20.5238C11.8498 24.2885 20.2182 31.1429 24.2399 34.7518C24.446 34.937 24.7092 35.039 24.9815 35.0392C25.2539 35.0394 25.5172 34.9379 25.7236 34.7531C29.7252 31.1661 38.0838 24.3325 42.709 20.577C42.8452 20.4666 42.9554 20.3253 43.0312 20.1639C43.1069 20.0025 43.1463 19.8253 43.1463 19.6457V16.8509C44.7489 18.1793 46.1242 19.3185 47.0238 20.0635C43.2444 23.1152 30.9283 33.1 26.548 37.1335Z" fill="#20C6B1"/>
</g>
<defs>
<clipPath id="clip0_14_1831">
<rect width="50" height="52" fill="white"/>
</clipPath>
</defs>
</svg>
