<svg width="25" height="30" viewBox="0 0 25 30" fill="none" xmlns="http://www.w3.org/2000/svg">
<path d="M23.7456 29.0681C23.5885 29.0681 23.4309 29.0332 23.2866 28.9629L12.6158 23.7728L1.94506 28.9629C1.63184 29.1158 1.25686 29.1016 0.957476 28.9256C0.657099 28.75 0.474304 28.4375 0.474304 28.1015V4.12568C0.474304 1.8884 2.37932 0.0683594 4.72108 0.0683594H20.5106C22.8524 0.0683594 24.7574 1.8884 24.7574 4.12568V28.1015C24.7574 28.4375 24.5746 28.75 24.2742 28.9256C24.1127 29.0205 23.9294 29.0681 23.7456 29.0681ZM12.6158 21.7214C12.7734 21.7214 12.9305 21.7564 13.0748 21.8267L22.7338 26.5245V4.12568C22.7338 2.95465 21.7363 2.00168 20.5106 2.00168H4.72108C3.49536 2.00168 2.49789 2.95465 2.49789 4.12568V26.5245L12.1569 21.8267C12.3011 21.7564 12.4582 21.7214 12.6158 21.7214Z" fill="#A1A1AA"/>
</svg>
