<svg width="26" height="32" viewBox="0 0 26 32" fill="none" xmlns="http://www.w3.org/2000/svg">
<path d="M24.9167 31.9998C24.7485 31.9998 24.5797 31.9612 24.4253 31.8836L13 26.1566L1.57475 31.8836C1.23938 32.0524 0.837891 32.0367 0.517334 31.8425C0.195719 31.6487 0 31.3039 0 30.9331V4.47705C0 2.00832 2.03971 0 4.54704 0H21.453C23.9603 0 26 2.00832 26 4.47705V30.9331C26 31.3039 25.8043 31.6487 25.4827 31.8425C25.3097 31.9471 25.1134 31.9998 24.9167 31.9998ZM13 23.893C13.1687 23.893 13.337 23.9316 13.4914 24.0092L23.8333 29.193V4.47705C23.8333 3.18487 22.7653 2.13332 21.453 2.13332H4.54704C3.23466 2.13332 2.16667 3.18487 2.16667 4.47705V29.193L12.5086 24.0092C12.663 23.9316 12.8313 23.893 13 23.893Z" fill="#A1A1AA"/>
</svg>
