<svg width="25" height="33" viewBox="0 0 25 33" fill="none" xmlns="http://www.w3.org/2000/svg">
<path d="M23.723 32.4398L23.7226 32.4396L12.7368 26.5336L12.5 26.4063L12.2632 26.5336L1.27742 32.4396L1.27672 32.44C1.1159 32.5267 0.925401 32.5194 0.769924 32.4183L0.768778 32.4176C0.609116 32.3144 0.5 32.121 0.5 31.8998V4.61696C0.5 2.3212 2.26272 0.5 4.37215 0.5H20.6278C22.7373 0.5 24.5 2.3212 24.5 4.61696V31.8998C24.5 32.121 24.3909 32.3144 24.2312 32.4176L24.2303 32.4181C24.1455 32.4732 24.0514 32.4997 23.9583 32.4997C23.8788 32.4997 23.7981 32.4803 23.723 32.4398ZM12.7353 25.1996L12.7358 25.1999L22.6799 30.5457L23.4167 30.9417V30.1053V4.61696C23.4167 3.03427 22.1912 1.69998 20.6278 1.69998H4.37215C2.80879 1.69998 1.58333 3.03427 1.58333 4.61696V30.1053V30.9417L2.32008 30.5457L12.2642 25.1999L12.2647 25.1996C12.3399 25.1591 12.42 25.1397 12.5 25.1397C12.58 25.1397 12.6601 25.1591 12.7353 25.1996Z" fill="#A1A1AA" stroke="#A1A1AA"/>
</svg>
