<svg width="50" height="50" viewBox="0 0 50 50" fill="none" xmlns="http://www.w3.org/2000/svg">
<rect width="50" height="50" rx="8" fill="#20C6B1"/>
<g clip-path="url(#clip0_2444_3291)">
<path d="M40.3544 10.4262L37.9994 7.78574C37.2112 6.90215 35.9289 6.90215 35.1407 7.78574C35.0557 7.88493 35.0087 8.01755 35.0099 8.15512C35.0111 8.29269 35.0604 8.42424 35.1472 8.52153C35.2339 8.61882 35.3513 8.67408 35.474 8.67546C35.5967 8.67683 35.715 8.62421 35.8034 8.52889C36.2262 8.0549 36.9138 8.0549 37.3367 8.52889L39.6917 11.1693C40.1144 11.6433 40.1144 12.4146 39.6917 12.8885L37.9855 14.8015L34.0971 10.4417L34.4358 10.0621C34.4793 10.0133 34.5138 9.95538 34.5374 9.89164C34.561 9.8279 34.5731 9.75958 34.5731 9.69058C34.5731 9.62159 34.561 9.55327 34.5374 9.48952C34.5139 9.42578 34.4794 9.36786 34.4359 9.31906C34.3924 9.27027 34.3407 9.23157 34.2839 9.20516C34.227 9.17875 34.1661 9.16515 34.1045 9.16515C34.043 9.16514 33.9821 9.17872 33.9252 9.20512C33.8684 9.23152 33.8167 9.27021 33.7732 9.31899L27.3784 16.4888C27.0797 16.3554 26.775 16.2394 26.4655 16.1415L26.1112 13.3431C26.0954 13.2178 26.0397 13.1031 25.9545 13.0201C25.8692 12.9372 25.7601 12.8915 25.6472 12.8915H22.2193C22.1064 12.8915 21.9973 12.9372 21.9121 13.0202C21.8269 13.1031 21.7712 13.2178 21.7553 13.3431L21.4011 16.1416C20.6943 16.3643 20.0137 16.6804 19.3734 17.0832L17.3579 15.3854C17.2677 15.3094 17.156 15.2724 17.0434 15.2814C16.9308 15.2903 16.8249 15.3444 16.7451 15.4339L14.3211 18.1516C14.2413 18.241 14.193 18.3598 14.185 18.4861C14.1771 18.6123 14.21 18.7375 14.2778 18.8387L15.7922 21.0986C15.4329 21.8164 15.1509 22.5795 14.9522 23.3719L12.4562 23.7692C12.3445 23.787 12.2422 23.8494 12.1682 23.945C12.0942 24.0405 12.0535 24.1629 12.0535 24.2894V28.1329C12.0535 28.2594 12.0942 28.3817 12.1682 28.4773C12.2422 28.5729 12.3445 28.6353 12.4562 28.6531L14.9524 29.0503C15.04 29.3971 15.1434 29.7386 15.2624 30.0734L11.6747 34.096C11.6139 34.1644 11.5711 34.2504 11.5511 34.3444L10.2411 38.4998L9.08125 42.1791C9.05178 42.2726 9.0465 42.3736 9.06605 42.4703C9.08559 42.5671 9.12915 42.6556 9.19169 42.7258C9.25426 42.7959 9.33325 42.8447 9.41953 42.8666C9.5058 42.8885 9.59585 42.8826 9.67925 42.8495L16.6669 40.0804C16.7508 40.058 16.8275 40.01 16.8886 39.9417L20.4712 35.9248C20.7753 36.0615 21.0857 36.1801 21.4009 36.2801L21.7552 39.0788C21.7711 39.2041 21.8268 39.3188 21.912 39.4018C21.9973 39.4847 22.1064 39.5304 22.2192 39.5304H25.6472C25.7601 39.5304 25.8691 39.4847 25.9544 39.4018C26.0396 39.3188 26.0953 39.2041 26.1112 39.0788L26.4654 36.2804C27.1722 36.0576 27.8528 35.7415 28.4931 35.3387L30.5086 37.0365C30.5989 37.1125 30.7106 37.1494 30.8231 37.1405C30.9357 37.1316 31.0417 37.0775 31.1215 36.9881L33.5454 34.2702C33.6252 34.1808 33.6735 34.062 33.6814 33.9357C33.6894 33.8095 33.6564 33.6843 33.5886 33.5831L32.0742 31.3233C32.4336 30.6055 32.7155 29.8424 32.9142 29.0499L35.4101 28.6528C35.5219 28.635 35.6242 28.5726 35.6982 28.477C35.7722 28.3814 35.8129 28.2591 35.8129 28.1325V24.2891C35.8129 24.1625 35.7721 24.0402 35.6981 23.9446C35.6241 23.8491 35.5219 23.7866 35.4101 23.7688L32.9142 23.3716C32.8251 23.0179 32.7194 22.6697 32.5976 22.3286L40.3545 13.6315C41.1426 12.7479 41.1426 11.31 40.3544 10.4262ZM10.2917 41.4922L10.8771 39.6356L11.9477 40.8361L10.2917 41.4922ZM12.9271 40.448L11.2232 38.5376L12.2026 35.4308L15.698 39.3499L12.9271 40.448ZM34.8756 24.7453V27.6766L32.4742 28.0587C32.3815 28.0735 32.2949 28.119 32.2255 28.1895C32.1561 28.26 32.1071 28.3522 32.0849 28.4542C31.8826 29.3825 31.5545 30.2706 31.112 31.0874C31.0634 31.1771 31.0399 31.2811 31.0445 31.386C31.0491 31.4908 31.0817 31.5917 31.1379 31.6756L32.5949 33.8498L30.7464 35.9225L28.8072 34.2889C28.7324 34.2258 28.6424 34.1893 28.5489 34.1841C28.4554 34.1789 28.3626 34.2053 28.2826 34.2598C27.5541 34.7559 26.7621 35.1238 25.9341 35.3506C25.8431 35.3755 25.7609 35.4304 25.698 35.5082C25.6352 35.586 25.5945 35.6832 25.5814 35.7871L25.2406 38.4795H22.6262L22.2854 35.7871C22.2722 35.6831 22.2316 35.586 22.1687 35.5082C22.1059 35.4304 22.0237 35.3755 21.9327 35.3506C21.6851 35.2826 21.4405 35.2017 21.1997 35.1081L23.761 32.2364C23.8209 32.2389 23.8777 32.2401 23.9334 32.2401C26.8986 32.2401 29.3109 29.5354 29.3109 26.2109C29.3109 26.0652 29.3046 25.9212 29.2955 25.778L29.2954 25.7745C29.2952 25.7709 29.2947 25.7673 29.2945 25.7637C29.2887 25.6747 29.2812 25.5859 29.2719 25.4974L29.2717 25.4959C28.9698 22.6456 26.8885 20.4 24.3114 20.1981C24.3069 20.1978 24.3024 20.1971 24.2979 20.1967L24.2949 20.1966C24.1746 20.1871 24.054 20.182 23.9334 20.1815C20.9682 20.1815 18.5559 22.8862 18.5559 26.2108C18.5559 26.2649 18.5567 26.3201 18.5584 26.3779L17.8353 27.1887C17.7917 27.2374 17.7572 27.2953 17.7336 27.3591C17.7101 27.4229 17.698 27.4912 17.6981 27.5603C17.6979 27.6384 17.7134 27.7155 17.7433 27.786C17.7732 27.8565 17.8168 27.9187 17.8709 27.9678C17.9361 28.0272 18.0143 28.0659 18.0973 28.0798C18.1804 28.0938 18.2652 28.0825 18.3431 28.0472C18.4011 28.0207 18.4538 27.9815 18.4981 27.9318L24.4429 21.2663C26.4717 21.5276 28.0981 23.3423 28.3407 25.6155L26.8737 27.2603C26.788 27.3594 26.7404 27.4923 26.7413 27.6303C26.7423 27.7683 26.7916 27.9003 26.8786 27.9979C26.9656 28.0955 27.0834 28.1508 27.2065 28.1518C27.3296 28.1528 27.4481 28.0995 27.5364 28.0034L28.2924 27.1558C27.9502 29.1444 26.5497 30.7146 24.7761 31.0984L26.206 29.4952C26.2917 29.3962 26.3393 29.2633 26.3383 29.1253C26.3374 28.9873 26.2881 28.8552 26.2011 28.7576C26.114 28.6601 25.9963 28.6048 25.8732 28.6037C25.7501 28.6027 25.6316 28.656 25.5432 28.7521L16.5572 38.8272L12.6688 34.4674L17.1674 29.4236C17.211 29.3749 17.2456 29.317 17.2692 29.2532C17.2927 29.1895 17.3048 29.1211 17.3047 29.0521C17.3048 28.9831 17.2927 28.9148 17.2691 28.851C17.2456 28.7872 17.211 28.7293 17.1674 28.6806C17.1232 28.6308 17.0705 28.5916 17.0124 28.5652C16.942 28.5333 16.8657 28.5209 16.7901 28.5293C16.7144 28.5377 16.6417 28.5665 16.5782 28.6133C16.5518 28.6329 16.5271 28.6555 16.5047 28.6806L15.9916 29.2559C15.9108 28.9924 15.8407 28.7249 15.7815 28.4542C15.7593 28.3523 15.7103 28.2601 15.6409 28.1896C15.5715 28.1191 15.4849 28.0736 15.3922 28.0588L12.9908 27.6767V24.7454L15.3922 24.3632C15.4849 24.3485 15.5715 24.3029 15.6409 24.2325C15.7103 24.162 15.7592 24.0699 15.7815 23.9679C15.9838 23.0395 16.3119 22.1515 16.7544 21.3347C16.803 21.2449 16.8265 21.1409 16.8219 21.0361C16.8172 20.9312 16.7847 20.8303 16.7284 20.7464L15.2714 18.5722L17.1201 16.4995L19.0592 18.1331C19.134 18.1962 19.224 18.2327 19.3176 18.2378C19.4111 18.243 19.5038 18.2167 19.5839 18.1622C20.3123 17.6661 21.1044 17.2982 21.9324 17.0714C22.0233 17.0465 22.1055 16.9915 22.1684 16.9137C22.2313 16.8359 22.2719 16.7388 22.2851 16.6348L22.6259 13.9424H25.2402L25.5811 16.6348C25.5942 16.7387 25.6348 16.8358 25.6977 16.9136C25.7605 16.9914 25.8427 17.0463 25.9336 17.0713C26.4007 17.1998 26.857 17.3735 27.2973 17.5902L27.2989 17.5912C27.3846 17.6333 27.4694 17.6768 27.5532 17.7216L27.5579 17.7241C27.6372 17.7666 27.7156 17.8104 27.793 17.8551C27.814 17.8673 27.8347 17.8801 27.8557 17.8925C27.9155 17.9278 27.9751 17.9634 28.0336 18C28.1173 18.0525 28.2003 18.1065 28.2824 18.1621C28.3624 18.2166 28.4552 18.243 28.5487 18.2378C28.6422 18.2326 28.7322 18.1961 28.8071 18.133L30.7462 16.4994L32.5948 18.5719L31.1378 20.7462C31.0815 20.8301 31.0489 20.931 31.0443 21.0359C31.0397 21.1408 31.0632 21.2448 31.1119 21.3345C31.1613 21.4258 31.2087 21.5181 31.2552 21.6111C31.2864 21.6737 31.3167 21.7373 31.3469 21.8013C31.3591 21.827 31.3715 21.8526 31.3834 21.8784C31.422 21.9618 31.4593 22.0458 31.4956 22.1305L31.5005 22.1419C31.5397 22.2337 31.5776 22.3261 31.6141 22.4192C31.6144 22.42 31.6149 22.4208 31.6153 22.4217C31.8117 22.9207 31.9689 23.4381 32.0849 23.9678C32.1071 24.0698 32.1561 24.162 32.2255 24.2325C32.2949 24.303 32.3815 24.3485 32.4742 24.3633L34.8756 24.7453ZM23.0611 21.3295L19.5795 25.2331C19.9295 23.2709 21.3111 21.7219 23.0611 21.3295ZM32.1779 21.313C32.1441 21.241 32.1096 21.1695 32.0742 21.0984L33.5886 18.8386C33.6563 18.7374 33.6893 18.6122 33.6813 18.4859C33.6734 18.3597 33.6251 18.2409 33.5453 18.1514L31.1214 15.4337C31.0416 15.3442 30.9357 15.29 30.8231 15.2811C30.7105 15.2722 30.5988 15.3092 30.5086 15.3852L28.493 17.0832C28.4244 17.0402 28.3554 16.9983 28.2858 16.9573L30.9721 13.9455L34.8604 18.3052L32.1779 21.313ZM35.5233 17.5621L31.6349 13.2025L33.4344 11.1849L37.3227 15.5447L35.5233 17.5621Z" fill="white"/>
<path d="M27.0402 19.2812C27.9351 19.6826 29.8322 21.0631 30.2617 23.3748" stroke="white" stroke-width="4" stroke-linecap="round"/>
<ellipse cx="30.4765" cy="25.3019" rx="0.42953" ry="0.481594" fill="white"/>
<path d="M40.3545 10.4262L37.9995 7.78574C37.2113 6.90215 35.9289 6.90215 35.1407 7.78574C35.0557 7.88493 35.0088 8.01755 35.01 8.15512C35.0112 8.29269 35.0605 8.42424 35.1472 8.52153C35.234 8.61882 35.3513 8.67408 35.474 8.67546C35.5967 8.67683 35.715 8.62421 35.8035 8.52889C36.2262 8.0549 36.9139 8.0549 37.3367 8.52889L39.6917 11.1693C40.1145 11.6433 40.1145 12.4146 39.6918 12.8885L37.9856 14.8015L34.0972 10.4417L34.4359 10.0621C34.4794 10.0133 34.5139 9.95538 34.5375 9.89164C34.561 9.8279 34.5731 9.75958 34.5732 9.69058C34.5732 9.62159 34.561 9.55327 34.5375 9.48952C34.514 9.42578 34.4794 9.36786 34.4359 9.31906C34.3924 9.27027 34.3408 9.23157 34.2839 9.20516C34.2271 9.17875 34.1661 9.16515 34.1046 9.16515C34.0431 9.16514 33.9821 9.17872 33.9253 9.20512C33.8684 9.23152 33.8168 9.27021 33.7732 9.31899L27.3784 16.4888C27.0797 16.3554 26.775 16.2394 26.4656 16.1415L26.1113 13.3431C26.0955 13.2178 26.0398 13.1031 25.9545 13.0201C25.8693 12.9372 25.7602 12.8915 25.6473 12.8915H22.2194C22.1065 12.8915 21.9974 12.9372 21.9122 13.0202C21.8269 13.1031 21.7712 13.2178 21.7554 13.3431L21.4011 16.1416C20.6944 16.3643 20.0137 16.6804 19.3735 17.0832L17.358 15.3854C17.2678 15.3094 17.1561 15.2724 17.0435 15.2814C16.9309 15.2903 16.825 15.3444 16.7451 15.4339L14.3212 18.1516C14.2414 18.241 14.193 18.3598 14.1851 18.4861C14.1771 18.6123 14.2101 18.7375 14.2779 18.8387L15.7922 21.0986C15.4329 21.8164 15.151 22.5795 14.9523 23.3719L12.4563 23.7692C12.3446 23.787 12.2423 23.8494 12.1683 23.945C12.0943 24.0405 12.0536 24.1629 12.0536 24.2894V28.1329C12.0536 28.2594 12.0943 28.3817 12.1683 28.4773C12.2423 28.5729 12.3446 28.6353 12.4563 28.6531L14.9525 29.0503C15.04 29.3971 15.1435 29.7386 15.2624 30.0734L11.6747 34.096C11.6139 34.1644 11.5711 34.2504 11.5511 34.3444L10.2412 38.4998L9.08131 42.1791C9.05184 42.2726 9.04657 42.3736 9.06611 42.4703C9.08565 42.5671 9.12921 42.6556 9.19175 42.7258C9.25432 42.7959 9.33331 42.8447 9.41959 42.8666C9.50586 42.8885 9.59591 42.8826 9.67931 42.8495L16.667 40.0804C16.7509 40.058 16.8276 40.01 16.8886 39.9417L20.4712 35.9248C20.7754 36.0615 21.0857 36.1801 21.401 36.2801L21.7553 39.0788C21.7712 39.2041 21.8269 39.3188 21.9121 39.4018C21.9973 39.4847 22.1064 39.5304 22.2193 39.5304H25.6472C25.7601 39.5304 25.8692 39.4847 25.9544 39.4018C26.0397 39.3188 26.0954 39.2041 26.1112 39.0788L26.4655 36.2804C27.1722 36.0576 27.8529 35.7415 28.4931 35.3387L30.5087 37.0365C30.5989 37.1125 30.7106 37.1494 30.8232 37.1405C30.9358 37.1316 31.0417 37.0775 31.1216 36.9881L33.5454 34.2702C33.6252 34.1808 33.6736 34.062 33.6815 33.9357C33.6894 33.8095 33.6565 33.6843 33.5887 33.5831L32.0743 31.3233C32.4336 30.6055 32.7156 29.8424 32.9142 29.0499L35.4102 28.6528C35.5219 28.635 35.6242 28.5726 35.6982 28.477C35.7722 28.3814 35.813 28.2591 35.8129 28.1325V24.2891C35.8129 24.1625 35.7722 24.0402 35.6982 23.9446C35.6242 23.8491 35.5219 23.7866 35.4102 23.7688L32.9142 23.3716C32.8252 23.0179 32.7195 22.6697 32.5976 22.3286L40.3546 13.6315C41.1426 12.7479 41.1426 11.31 40.3545 10.4262ZM10.2918 41.4922L10.8771 39.6356L11.9478 40.8361L10.2918 41.4922ZM12.9271 40.448L11.2232 38.5376L12.2026 35.4308L15.6981 39.3499L12.9271 40.448ZM34.8757 24.7453V27.6766L32.4743 28.0587C32.3816 28.0735 32.295 28.119 32.2256 28.1895C32.1561 28.26 32.1072 28.3522 32.0849 28.4542C31.8826 29.3825 31.5545 30.2706 31.1121 31.0874C31.0635 31.1771 31.0399 31.2811 31.0446 31.386C31.0492 31.4908 31.0817 31.5917 31.138 31.6756L32.595 33.8498L30.7464 35.9225L28.8073 34.2889C28.7325 34.2258 28.6425 34.1893 28.549 34.1841C28.4555 34.1789 28.3627 34.2053 28.2827 34.2598C27.5542 34.7559 26.7621 35.1238 25.9341 35.3506C25.8432 35.3755 25.761 35.4304 25.6981 35.5082C25.6352 35.586 25.5946 35.6832 25.5814 35.7871L25.2406 38.4795H22.6262L22.2854 35.7871C22.2723 35.6831 22.2317 35.586 22.1688 35.5082C22.1059 35.4304 22.0237 35.3755 21.9327 35.3506C21.6852 35.2826 21.4406 35.2017 21.1997 35.1081L23.7611 32.2364C23.8209 32.2389 23.8777 32.2401 23.9335 32.2401C26.8986 32.2401 29.3109 29.5354 29.3109 26.2109C29.3109 26.0652 29.3047 25.9212 29.2956 25.778L29.2955 25.7745C29.2952 25.7709 29.2948 25.7673 29.2946 25.7637C29.2888 25.6747 29.2813 25.5859 29.272 25.4974L29.2718 25.4959C28.9699 22.6456 26.8886 20.4 24.3115 20.1981C24.3069 20.1978 24.3025 20.1971 24.2979 20.1967L24.295 20.1966C24.1747 20.1871 24.0541 20.182 23.9334 20.1815C20.9683 20.1815 18.556 22.8862 18.556 26.2108C18.556 26.2649 18.5568 26.3201 18.5585 26.3779L17.8354 27.1887C17.7918 27.2374 17.7572 27.2953 17.7337 27.3591C17.7101 27.4229 17.698 27.4912 17.6981 27.5603C17.698 27.6384 17.7135 27.7155 17.7434 27.786C17.7733 27.8565 17.8169 27.9187 17.871 27.9678C17.9362 28.0272 18.0143 28.0659 18.0974 28.0798C18.1804 28.0938 18.2653 28.0825 18.3431 28.0472C18.4012 28.0207 18.4539 27.9815 18.4981 27.9318L24.4429 21.2663C26.4717 21.5276 28.0981 23.3423 28.3408 25.6155L26.8737 27.2603C26.788 27.3594 26.7405 27.4923 26.7414 27.6303C26.7423 27.7683 26.7916 27.9003 26.8787 27.9979C26.9657 28.0955 27.0835 28.1508 27.2066 28.1518C27.3297 28.1528 27.4482 28.0995 27.5365 28.0034L28.2925 27.1558C27.9502 29.1444 26.5498 30.7146 24.7761 31.0984L26.2061 29.4952C26.2918 29.3962 26.3393 29.2633 26.3384 29.1253C26.3375 28.9873 26.2882 28.8552 26.2011 28.7576C26.1141 28.6601 25.9963 28.6048 25.8732 28.6037C25.7501 28.6027 25.6316 28.656 25.5433 28.7521L16.5573 38.8272L12.6689 34.4674L17.1675 29.4236C17.2111 29.3749 17.2457 29.317 17.2692 29.2532C17.2928 29.1895 17.3049 29.1211 17.3047 29.0521C17.3048 28.9831 17.2927 28.9148 17.2692 28.851C17.2456 28.7872 17.2111 28.7293 17.1675 28.6806C17.1233 28.6308 17.0706 28.5916 17.0125 28.5652C16.9421 28.5333 16.8657 28.5209 16.7901 28.5293C16.7145 28.5377 16.6418 28.5665 16.5783 28.6133C16.5518 28.6329 16.5272 28.6555 16.5047 28.6806L15.9916 29.2559C15.9108 28.9924 15.8407 28.7249 15.7816 28.4542C15.7593 28.3523 15.7103 28.2601 15.641 28.1896C15.5716 28.1191 15.4849 28.0736 15.3922 28.0588L12.9909 27.6767V24.7454L15.3922 24.3632C15.4849 24.3485 15.5715 24.3029 15.6409 24.2325C15.7103 24.162 15.7593 24.0699 15.7816 23.9679C15.9838 23.0395 16.3119 22.1515 16.7544 21.3347C16.803 21.2449 16.8265 21.1409 16.8219 21.0361C16.8173 20.9312 16.7848 20.8303 16.7285 20.7464L15.2714 18.5722L17.1201 16.4995L19.0592 18.1331C19.1341 18.1962 19.2241 18.2327 19.3176 18.2378C19.4111 18.243 19.5039 18.2167 19.5839 18.1622C20.3124 17.6661 21.1044 17.2982 21.9324 17.0714C22.0234 17.0465 22.1056 16.9915 22.1685 16.9137C22.2313 16.8359 22.2719 16.7388 22.2851 16.6348L22.6259 13.9424H25.2403L25.5811 16.6348C25.5943 16.7387 25.6349 16.8358 25.6977 16.9136C25.7606 16.9914 25.8428 17.0463 25.9337 17.0713C26.4007 17.1998 26.857 17.3735 27.2974 17.5902L27.299 17.5912C27.3847 17.6333 27.4694 17.6768 27.5532 17.7216L27.5579 17.7241C27.6373 17.7666 27.7156 17.8104 27.7931 17.8551C27.8141 17.8673 27.8348 17.8801 27.8557 17.8925C27.9156 17.9278 27.9751 17.9634 28.0336 18C28.1174 18.0525 28.2003 18.1065 28.2824 18.1621C28.3625 18.2166 28.4552 18.243 28.5488 18.2378C28.6423 18.2326 28.7323 18.1961 28.8071 18.133L30.7463 16.4994L32.5949 18.5719L31.1379 20.7462C31.0816 20.8301 31.049 20.931 31.0444 21.0359C31.0398 21.1408 31.0633 21.2448 31.1119 21.3345C31.1614 21.4258 31.2087 21.5181 31.2553 21.6111C31.2865 21.6737 31.3168 21.7373 31.347 21.8013C31.3592 21.827 31.3716 21.8526 31.3835 21.8784C31.422 21.9618 31.4594 22.0458 31.4956 22.1305L31.5006 22.1419C31.5397 22.2337 31.5776 22.3261 31.6142 22.4192C31.6145 22.42 31.615 22.4208 31.6154 22.4217C31.8118 22.9207 31.9689 23.4381 32.0849 23.9678C32.1072 24.0698 32.1561 24.162 32.2255 24.2325C32.2949 24.303 32.3816 24.3485 32.4743 24.3633L34.8757 24.7453ZM23.0611 21.3295L19.5796 25.2331C19.9296 23.2709 21.3111 21.7219 23.0611 21.3295ZM32.1779 21.313C32.1442 21.241 32.1096 21.1695 32.0743 21.0984L33.5886 18.8386C33.6564 18.7374 33.6894 18.6122 33.6814 18.4859C33.6735 18.3597 33.6252 18.2409 33.5454 18.1514L31.1215 15.4337C31.0417 15.3442 30.9357 15.29 30.8231 15.2811C30.7105 15.2722 30.5989 15.3092 30.5086 15.3852L28.4931 17.0832C28.4245 17.0402 28.3554 16.9983 28.2859 16.9573L30.9721 13.9455L34.8605 18.3052L32.1779 21.313ZM35.5234 17.5621L31.635 13.2025L33.4344 11.1849L37.3228 15.5447L35.5234 17.5621Z" fill="white"/>
<path d="M27.0403 19.2812C27.9351 19.6826 29.8322 21.0631 30.2617 23.3748" stroke="white" stroke-width="4" stroke-linecap="round"/>
<ellipse cx="30.4765" cy="25.3019" rx="0.42953" ry="0.481594" fill="white"/>
</g>
<defs>
<clipPath id="clip0_2444_3291">
<rect width="32" height="35.8788" fill="white" transform="translate(9 7)"/>
</clipPath>
</defs>
</svg>
