<svg width="72" height="72" viewBox="0 0 72 72" fill="none" xmlns="http://www.w3.org/2000/svg">
<rect width="72" height="72" rx="8" fill="#20C6B1"/>
<g clip-path="url(#clip0_2425_3301)">
<path d="M59.9913 15.7731L56.3116 12.0934C55.0801 10.8621 53.0763 10.8621 51.8448 12.0934C51.712 12.2317 51.6386 12.4165 51.6405 12.6082C51.6424 12.7999 51.7194 12.9832 51.855 13.1188C51.9905 13.2544 52.1738 13.3314 52.3656 13.3333C52.5573 13.3352 52.7421 13.2619 52.8804 13.1291C53.5409 12.4685 54.6153 12.4685 55.276 13.1291L58.9557 16.8087C59.6163 17.4693 59.6163 18.5441 58.9558 19.2046L56.2898 21.8705L50.2142 15.7948L50.7434 15.2657C50.8114 15.1977 50.8654 15.117 50.9022 15.0282C50.939 14.9394 50.9579 14.8441 50.9579 14.748C50.9579 14.6518 50.939 14.5566 50.9022 14.4678C50.8654 14.379 50.8115 14.2982 50.7435 14.2302C50.6755 14.1623 50.5948 14.1083 50.506 14.0715C50.4172 14.0347 50.322 14.0158 50.2258 14.0158C50.1297 14.0157 50.0345 14.0347 49.9456 14.0715C49.8568 14.1082 49.7761 14.1622 49.7081 14.2302L39.7162 24.2219C39.2494 24.0359 38.7733 23.8744 38.2898 23.7379L37.7363 19.8381C37.7115 19.6634 37.6245 19.5036 37.4913 19.388C37.3581 19.2724 37.1877 19.2087 37.0113 19.2088H31.6552C31.4788 19.2088 31.3083 19.2724 31.1751 19.388C31.0419 19.5036 30.9549 19.6634 30.9302 19.8381L30.3766 23.738C29.2723 24.0484 28.2088 24.4889 27.2085 25.0503L24.0593 22.6842C23.9182 22.5782 23.7438 22.5268 23.5678 22.5392C23.3919 22.5516 23.2264 22.6271 23.1016 22.7517L19.3142 26.539C19.1895 26.6637 19.114 26.8293 19.1016 27.0052C19.0891 27.1811 19.1406 27.3556 19.2466 27.4967L21.6128 30.646C21.0513 31.6463 20.6108 32.7098 20.3004 33.814L16.4004 34.3677C16.2257 34.3924 16.0659 34.4794 15.9503 34.6126C15.8347 34.7458 15.7711 34.9163 15.7711 35.0927V40.4488C15.7711 40.6252 15.8347 40.7956 15.9504 40.9288C16.066 41.062 16.2258 41.149 16.4004 41.1738L20.3007 41.7273C20.4374 42.2106 20.5991 42.6865 20.7849 43.1531L15.1792 48.7589C15.0841 48.8543 15.0173 48.9741 14.986 49.1051L12.9392 54.896L11.1269 60.0234C11.0809 60.1537 11.0726 60.2944 11.1032 60.4292C11.1337 60.5641 11.2018 60.6875 11.2995 60.7852C11.3973 60.8829 11.5207 60.951 11.6555 60.9815C11.7903 61.012 11.931 61.0038 12.0613 60.9577L22.9796 57.0986C23.1107 57.0675 23.2305 57.0006 23.3259 56.9053L28.9237 51.3075C29.3989 51.498 29.8838 51.6632 30.3764 51.8026L30.9301 55.7029C30.9548 55.8775 31.0418 56.0373 31.175 56.1529C31.3082 56.2686 31.4787 56.3322 31.6551 56.3322H37.0112C37.1876 56.3322 37.358 56.2685 37.4912 56.1529C37.6244 56.0373 37.7114 55.8775 37.7362 55.7029L38.2897 51.803C39.394 51.4926 40.4575 51.0521 41.4579 50.4907L44.6072 52.8568C44.7482 52.9627 44.9227 53.0141 45.0986 53.0017C45.2745 52.9893 45.4401 52.9139 45.5648 52.7892L49.3521 49.0017C49.4768 48.877 49.5523 48.7115 49.5647 48.5356C49.5771 48.3597 49.5257 48.1852 49.4197 48.0442L47.0535 44.895C47.6149 43.8947 48.0555 42.8311 48.3659 41.7268L52.2658 41.1733C52.4404 41.1485 52.6002 41.0616 52.7159 40.9284C52.8315 40.7952 52.8951 40.6247 52.8951 40.4483V35.0922C52.8951 34.9158 52.8314 34.7454 52.7158 34.6122C52.6002 34.479 52.4404 34.392 52.2658 34.3672L48.3659 33.8136C48.2267 33.3207 48.0616 32.8355 47.8712 32.36L59.9914 20.2399C61.2227 19.0086 61.2227 17.0048 59.9913 15.7731ZM13.0183 59.0662L13.9329 56.4788L15.6058 58.1517L13.0183 59.0662ZM17.136 57.6109L14.4737 54.9487L16.004 50.6191L21.4656 56.0806L17.136 57.6109ZM51.4306 35.728V39.813L47.6785 40.3455C47.5336 40.366 47.3983 40.4295 47.2898 40.5277C47.1814 40.626 47.1048 40.7544 47.0701 40.8966C46.754 42.1903 46.2413 43.4279 45.55 44.5662C45.474 44.6912 45.4373 44.8361 45.4445 44.9823C45.4517 45.1284 45.5026 45.269 45.5905 45.3859L47.8671 48.4158L44.9787 51.3043L41.9488 49.0277C41.8319 48.9398 41.6913 48.8889 41.5452 48.8817C41.399 48.8745 41.2541 48.9112 41.1291 48.9872C39.9908 49.6786 38.7532 50.1913 37.4595 50.5073C37.3173 50.542 37.1889 50.6185 37.0907 50.727C36.9924 50.8354 36.9289 50.9708 36.9084 51.1156L36.3759 54.8677H32.2909L31.7584 51.1156C31.7378 50.9707 31.6744 50.8354 31.5761 50.7269C31.4779 50.6185 31.3494 50.542 31.2073 50.5073C30.8205 50.4125 30.4383 50.2998 30.062 50.1694L34.064 46.1675C34.1576 46.1709 34.2464 46.1726 34.3335 46.1726C38.9665 46.1726 42.7357 42.4034 42.7357 37.7704C42.7357 37.5674 42.726 37.3667 42.7117 37.1672L42.7116 37.1623C42.7112 37.1572 42.7105 37.1522 42.7101 37.1471C42.7011 37.0232 42.6894 36.8995 42.6749 36.776L42.6746 36.774C42.2028 32.8019 38.9508 29.6724 34.9241 29.3911C34.917 29.3906 34.91 29.3896 34.9029 29.3891L34.8983 29.389C34.7103 29.3757 34.5219 29.3687 34.3334 29.3679C29.7004 29.3679 25.9311 33.1372 25.9311 37.7702C25.9311 37.8457 25.9324 37.9225 25.935 38.0031L24.8052 39.133C24.7371 39.2009 24.683 39.2816 24.6462 39.3705C24.6094 39.4594 24.5906 39.5547 24.5907 39.6509C24.5905 39.7597 24.6147 39.8672 24.6614 39.9654C24.7081 40.0637 24.7763 40.1503 24.8608 40.2188C24.9626 40.3016 25.0848 40.3555 25.2146 40.3749C25.3443 40.3944 25.4769 40.3786 25.5985 40.3294C25.6892 40.2926 25.7716 40.2379 25.8407 40.1686L35.1295 30.8798C38.2995 31.2438 40.8407 33.7727 41.2199 36.9407L38.9276 39.2329C38.7937 39.3709 38.7194 39.5561 38.7208 39.7484C38.7223 39.9407 38.7993 40.1247 38.9353 40.2607C39.0713 40.3967 39.2553 40.4738 39.4477 40.4752C39.64 40.4767 39.8251 40.4024 39.9632 40.2684L41.1444 39.0872C40.6096 41.8585 38.4215 44.0467 35.6501 44.5815L37.8844 42.3473C38.0183 42.2093 38.0926 42.0242 38.0911 41.8318C38.0897 41.6395 38.0127 41.4555 37.8767 41.3195C37.7407 41.1835 37.5566 41.1065 37.3643 41.105C37.172 41.1036 36.9868 41.1778 36.8488 41.3118L22.8082 55.3522L16.7325 49.2765L23.7616 42.2475C23.8297 42.1797 23.8838 42.099 23.9206 42.0101C23.9574 41.9213 23.9762 41.826 23.9761 41.7299C23.9762 41.6337 23.9573 41.5384 23.9205 41.4496C23.8837 41.3607 23.8297 41.28 23.7616 41.2121C23.6925 41.1428 23.6101 41.0881 23.5194 41.0513C23.4094 41.0068 23.2901 40.9896 23.1719 41.0013C23.0538 41.0129 22.9402 41.0531 22.841 41.1183C22.7996 41.1456 22.7611 41.1771 22.7261 41.2122L21.9243 42.0138C21.7981 41.6466 21.6885 41.2738 21.5961 40.8967C21.5613 40.7546 21.4848 40.6261 21.3764 40.5279C21.268 40.4297 21.1326 40.3662 20.9878 40.3456L17.2356 39.8131V35.7281L20.9878 35.1955C21.1326 35.1749 21.2679 35.1115 21.3763 35.0133C21.4848 34.9151 21.5613 34.7867 21.5961 34.6446C21.9121 33.3509 22.4248 32.1132 23.1162 30.975C23.1921 30.8499 23.2289 30.705 23.2216 30.5588C23.2144 30.4127 23.1636 30.2721 23.0757 30.1552L20.799 27.1253L23.6876 24.2368L26.7175 26.5134C26.8344 26.6012 26.975 26.6521 27.1212 26.6593C27.2673 26.6665 27.4122 26.6298 27.5373 26.5539C28.6755 25.8625 29.9131 25.3498 31.2068 25.0338C31.3489 24.999 31.4774 24.9225 31.5756 24.814C31.6738 24.7056 31.7373 24.5702 31.7579 24.4254L32.2904 20.6732H36.3754L36.9079 24.4253C36.9285 24.5701 36.9919 24.7054 37.0901 24.8138C37.1883 24.9223 37.3167 24.9988 37.4588 25.0336C38.1886 25.2127 38.9015 25.4547 39.5895 25.7568L39.5921 25.7581C39.726 25.8168 39.8584 25.8774 39.9893 25.9398L39.9967 25.9433C40.1207 26.0026 40.243 26.0636 40.364 26.126C40.3969 26.1429 40.4293 26.1607 40.462 26.178C40.5554 26.2272 40.6485 26.2768 40.7399 26.3278C40.8708 26.4009 41.0004 26.4763 41.1287 26.5538C41.2537 26.6297 41.3987 26.6665 41.5448 26.6592C41.691 26.652 41.8316 26.6011 41.9485 26.5132L44.9785 24.2366L47.8669 27.1249L45.5903 30.1549C45.5023 30.2718 45.4515 30.4124 45.4442 30.5586C45.437 30.7048 45.4738 30.8497 45.5498 30.9748C45.627 31.1019 45.7011 31.2306 45.7738 31.3601C45.8225 31.4474 45.8699 31.5361 45.9171 31.6253C45.9361 31.6611 45.9554 31.6968 45.9741 31.7327C46.0343 31.8489 46.0927 31.966 46.1493 32.0841L46.157 32.1C46.2182 32.2278 46.2774 32.3566 46.3345 32.4863C46.335 32.4875 46.3358 32.4886 46.3364 32.4898C46.6433 33.1853 46.8888 33.9063 47.0701 34.6445C47.1048 34.7866 47.1814 34.9151 47.2898 35.0133C47.3982 35.1116 47.5336 35.175 47.6785 35.1956L51.4306 35.728ZM32.9704 30.9677L27.5304 36.4078C28.0773 33.6733 30.236 31.5146 32.9704 30.9677ZM47.2154 30.9448C47.1627 30.8445 47.1087 30.7448 47.0535 30.6458L49.4196 27.4965C49.5255 27.3554 49.577 27.181 49.5646 27.005C49.5522 26.8291 49.4767 26.6636 49.352 26.5388L45.5647 22.7515C45.44 22.6268 45.2745 22.5513 45.0985 22.5389C44.9226 22.5264 44.7481 22.578 44.6071 22.684L41.4578 25.0502C41.3507 24.9903 41.2427 24.9318 41.1341 24.8748L45.3313 20.6776L51.4069 26.7532L47.2154 30.9448ZM52.4427 25.7177L46.3671 19.6422L49.1787 16.8304L55.2543 22.9061L52.4427 25.7177Z" fill="white"/>
<path d="M39.1877 28.1133C40.586 28.6726 43.5502 30.5965 44.2213 33.818" stroke="white" stroke-width="4" stroke-linecap="round"/>
<circle cx="44.5569" cy="36.5032" r="0.671141" fill="white"/>
<path d="M59.9914 15.7731L56.3117 12.0934C55.0802 10.8621 53.0765 10.8621 51.8449 12.0934C51.7121 12.2317 51.6387 12.4165 51.6406 12.6082C51.6425 12.7999 51.7195 12.9832 51.8551 13.1188C51.9906 13.2544 52.174 13.3314 52.3657 13.3333C52.5574 13.3352 52.7422 13.2619 52.8805 13.1291C53.541 12.4685 54.6154 12.4685 55.2762 13.1291L58.9559 16.8087C59.6164 17.4693 59.6164 18.5441 58.956 19.2046L56.2899 21.8705L50.2144 15.7948L50.7436 15.2657C50.8116 15.1977 50.8655 15.117 50.9023 15.0282C50.9391 14.9394 50.958 14.8441 50.9581 14.748C50.9581 14.6518 50.9391 14.5566 50.9023 14.4678C50.8656 14.379 50.8116 14.2982 50.7437 14.2302C50.6757 14.1623 50.595 14.1083 50.5061 14.0715C50.4173 14.0347 50.3221 14.0158 50.2259 14.0158C50.1298 14.0157 50.0346 14.0347 49.9458 14.0715C49.8569 14.1082 49.7762 14.1622 49.7082 14.2302L39.7163 24.2219C39.2496 24.0359 38.7735 23.8744 38.2899 23.7379L37.7364 19.8381C37.7117 19.6634 37.6247 19.5036 37.4915 19.388C37.3583 19.2724 37.1878 19.2087 37.0114 19.2088H31.6553C31.4789 19.2088 31.3085 19.2724 31.1753 19.388C31.0421 19.5036 30.9551 19.6634 30.9303 19.8381L30.3768 23.738C29.2725 24.0484 28.209 24.4889 27.2086 25.0503L24.0594 22.6842C23.9184 22.5782 23.7439 22.5268 23.568 22.5392C23.392 22.5516 23.2265 22.6271 23.1018 22.7517L19.3144 26.539C19.1896 26.6637 19.1141 26.8293 19.1017 27.0052C19.0893 27.1811 19.1407 27.3556 19.2467 27.4967L21.6129 30.646C21.0515 31.6463 20.6109 32.7098 20.3005 33.814L16.4005 34.3677C16.2259 34.3924 16.0661 34.4794 15.9504 34.6126C15.8348 34.7458 15.7712 34.9163 15.7712 35.0927V40.4488C15.7712 40.6252 15.8349 40.7956 15.9505 40.9288C16.0661 41.062 16.2259 41.149 16.4005 41.1738L20.3008 41.7273C20.4376 42.2106 20.5992 42.6865 20.7851 43.1531L15.1793 48.7589C15.0843 48.8543 15.0174 48.9741 14.9861 49.1051L12.9394 54.896L11.1271 60.0234C11.081 60.1537 11.0728 60.2944 11.1033 60.4292C11.1338 60.5641 11.2019 60.6875 11.2996 60.7852C11.3974 60.8829 11.5208 60.951 11.6556 60.9815C11.7904 61.012 11.9311 61.0038 12.0614 60.9577L22.9797 57.0986C23.1108 57.0675 23.2306 57.0006 23.326 56.9053L28.9238 51.3075C29.399 51.498 29.8839 51.6632 30.3766 51.8026L30.9302 55.7029C30.955 55.8775 31.042 56.0373 31.1752 56.1529C31.3084 56.2686 31.4788 56.3322 31.6552 56.3322H37.0113C37.1877 56.3322 37.3581 56.2685 37.4913 56.1529C37.6245 56.0373 37.7115 55.8775 37.7363 55.7029L38.2898 51.803C39.3941 51.4926 40.4577 51.0521 41.458 50.4907L44.6073 52.8568C44.7484 52.9627 44.9228 53.0141 45.0987 53.0017C45.2747 52.9893 45.4402 52.9139 45.5649 52.7892L49.3522 49.0017C49.4769 48.877 49.5524 48.7115 49.5649 48.5356C49.5773 48.3597 49.5258 48.1852 49.4198 48.0442L47.0536 44.895C47.6151 43.8947 48.0556 42.8311 48.366 41.7268L52.2659 41.1733C52.4406 41.1485 52.6004 41.0616 52.716 40.9284C52.8316 40.7952 52.8952 40.6247 52.8952 40.4483V35.0922C52.8952 34.9158 52.8315 34.7454 52.7159 34.6122C52.6003 34.479 52.4405 34.392 52.2659 34.3672L48.366 33.8136C48.2269 33.3207 48.0617 32.8355 47.8713 32.36L59.9915 20.2399C61.2229 19.0086 61.2229 17.0048 59.9914 15.7731ZM13.0185 59.0662L13.933 56.4788L15.606 58.1517L13.0185 59.0662ZM17.1361 57.6109L14.4738 54.9487L16.0041 50.6191L21.4657 56.0806L17.1361 57.6109ZM51.4308 35.728V39.813L47.6786 40.3455C47.5338 40.366 47.3984 40.4295 47.2899 40.5277C47.1815 40.626 47.105 40.7544 47.0702 40.8966C46.7541 42.1903 46.2415 43.4279 45.5501 44.5662C45.4741 44.6912 45.4374 44.8361 45.4446 44.9823C45.4519 45.1284 45.5027 45.269 45.5906 45.3859L47.8672 48.4158L44.9788 51.3043L41.9489 49.0277C41.832 48.9398 41.6914 48.8889 41.5453 48.8817C41.3992 48.8745 41.2542 48.9112 41.1292 48.9872C39.9909 49.6786 38.7533 50.1913 37.4596 50.5073C37.3175 50.542 37.189 50.6185 37.0908 50.727C36.9925 50.8354 36.9291 50.9708 36.9085 51.1156L36.376 54.8677H32.291L31.7585 51.1156C31.738 50.9707 31.6745 50.8354 31.5763 50.7269C31.478 50.6185 31.3496 50.542 31.2074 50.5073C30.8206 50.4125 30.4384 50.2998 30.0621 50.1694L34.0642 46.1675C34.1577 46.1709 34.2465 46.1726 34.3336 46.1726C38.9666 46.1726 42.7358 42.4034 42.7358 37.7704C42.7358 37.5674 42.7261 37.3667 42.7118 37.1672L42.7117 37.1623C42.7113 37.1572 42.7106 37.1522 42.7103 37.1471C42.7012 37.0232 42.6895 36.8995 42.675 36.776L42.6747 36.774C42.2029 32.8019 38.9509 29.6724 34.9242 29.3911C34.9171 29.3906 34.9102 29.3896 34.903 29.3891L34.8984 29.389C34.7104 29.3757 34.522 29.3687 34.3335 29.3679C29.7005 29.3679 25.9313 33.1372 25.9313 37.7702C25.9313 37.8457 25.9325 37.9225 25.9352 38.0031L24.8053 39.133C24.7372 39.2009 24.6832 39.2816 24.6464 39.3705C24.6096 39.4594 24.5907 39.5547 24.5908 39.6509C24.5906 39.7597 24.6148 39.8672 24.6615 39.9654C24.7083 40.0637 24.7764 40.1503 24.8609 40.2188C24.9628 40.3016 25.0849 40.3555 25.2147 40.3749C25.3444 40.3944 25.477 40.3786 25.5986 40.3294C25.6893 40.2926 25.7717 40.2379 25.8408 40.1686L35.1296 30.8798C38.2996 31.2438 40.8408 33.7727 41.22 36.9407L38.9277 39.2329C38.7938 39.3709 38.7195 39.5561 38.721 39.7484C38.7224 39.9407 38.7994 40.1247 38.9354 40.2607C39.0714 40.3967 39.2555 40.4738 39.4478 40.4752C39.6401 40.4767 39.8253 40.4024 39.9633 40.2684L41.1445 39.0872C40.6098 41.8585 38.4216 44.0467 35.6502 44.5815L37.8845 42.3473C38.0184 42.2093 38.0927 42.0242 38.0913 41.8318C38.0898 41.6395 38.0128 41.4555 37.8768 41.3195C37.7408 41.1835 37.5568 41.1065 37.3644 41.105C37.1721 41.1036 36.9869 41.1778 36.8489 41.3118L22.8083 55.3522L16.7326 49.2765L23.7617 42.2475C23.8299 42.1797 23.8839 42.099 23.9207 42.0101C23.9575 41.9213 23.9764 41.826 23.9762 41.7299C23.9763 41.6337 23.9574 41.5384 23.9206 41.4496C23.8838 41.3607 23.8298 41.28 23.7617 41.2121C23.6926 41.1428 23.6102 41.0881 23.5195 41.0513C23.4095 41.0068 23.2902 40.9896 23.1721 41.0013C23.0539 41.0129 22.9403 41.0531 22.8411 41.1183C22.7997 41.1456 22.7612 41.1771 22.7262 41.2122L21.9244 42.0138C21.7982 41.6466 21.6887 41.2738 21.5962 40.8967C21.5614 40.7546 21.4849 40.6261 21.3765 40.5279C21.2681 40.4297 21.1327 40.3662 20.9879 40.3456L17.2357 39.8131V35.7281L20.9879 35.1955C21.1327 35.1749 21.2681 35.1115 21.3765 35.0133C21.4849 34.9151 21.5614 34.7867 21.5962 34.6446C21.9122 33.3509 22.4249 32.1132 23.1163 30.975C23.1923 30.8499 23.229 30.705 23.2218 30.5588C23.2145 30.4127 23.1637 30.2721 23.0758 30.1552L20.7991 27.1253L23.6877 24.2368L26.7176 26.5134C26.8345 26.6012 26.9752 26.6521 27.1213 26.6593C27.2674 26.6665 27.4123 26.6298 27.5374 26.5539C28.6756 25.8625 29.9132 25.3498 31.2069 25.0338C31.3491 24.999 31.4775 24.9225 31.5757 24.814C31.6739 24.7056 31.7374 24.5702 31.758 24.4254L32.2905 20.6732H36.3755L36.908 24.4253C36.9286 24.5701 36.992 24.7054 37.0902 24.8138C37.1884 24.9223 37.3168 24.9988 37.4589 25.0336C38.1887 25.2127 38.9016 25.4547 39.5897 25.7568L39.5922 25.7581C39.7261 25.8168 39.8585 25.8774 39.9895 25.9398L39.9968 25.9433C40.1208 26.0026 40.2432 26.0636 40.3642 26.126C40.397 26.1429 40.4294 26.1607 40.4621 26.178C40.5556 26.2272 40.6486 26.2768 40.74 26.3278C40.8709 26.4009 41.0005 26.4763 41.1288 26.5538C41.2539 26.6297 41.3988 26.6665 41.545 26.6592C41.6911 26.652 41.8317 26.6011 41.9486 26.5132L44.9786 24.2366L47.867 27.1249L45.5904 30.1549C45.5025 30.2718 45.4516 30.4124 45.4444 30.5586C45.4371 30.7048 45.4739 30.8497 45.5499 30.9748C45.6272 31.1019 45.7012 31.2306 45.7739 31.3601C45.8227 31.4474 45.87 31.5361 45.9172 31.6253C45.9362 31.6611 45.9556 31.6968 45.9742 31.7327C46.0344 31.8489 46.0928 31.966 46.1494 32.0841L46.1571 32.1C46.2183 32.2278 46.2775 32.3566 46.3347 32.4863C46.3352 32.4875 46.3359 32.4886 46.3365 32.4898C46.6434 33.1853 46.8889 33.9063 47.0702 34.6445C47.105 34.7866 47.1815 34.9151 47.2899 35.0133C47.3984 35.1116 47.5338 35.175 47.6786 35.1956L51.4308 35.728ZM32.9705 30.9677L27.5306 36.4078C28.0774 33.6733 30.2361 31.5146 32.9705 30.9677ZM47.2155 30.9448C47.1628 30.8445 47.1088 30.7448 47.0536 30.6458L49.4197 27.4965C49.5256 27.3554 49.5771 27.181 49.5647 27.005C49.5523 26.8291 49.4768 26.6636 49.3522 26.5388L45.5648 22.7515C45.4401 22.6268 45.2746 22.5513 45.0987 22.5389C44.9227 22.5264 44.7482 22.578 44.6072 22.684L41.4579 25.0502C41.3508 24.9903 41.2429 24.9318 41.1342 24.8748L45.3314 20.6776L51.407 26.7532L47.2155 30.9448ZM52.4428 25.7177L46.3672 19.6422L49.1788 16.8304L55.2544 22.9061L52.4428 25.7177Z" fill="white"/>
<path d="M39.1879 28.1133C40.5861 28.6726 43.5503 30.5965 44.2214 33.818" stroke="white" stroke-width="4" stroke-linecap="round"/>
<circle cx="44.557" cy="36.5032" r="0.671141" fill="white"/>
</g>
<defs>
<clipPath id="clip0_2425_3301">
<rect width="50" height="50" fill="white" transform="translate(11 11)"/>
</clipPath>
</defs>
</svg>
