<svg width="123" height="62" viewBox="0 0 123 62" fill="none" xmlns="http://www.w3.org/2000/svg">
<path d="M94.5 24.4697V0H99.1143L109.444 16.7617V0H113.709V24.4697H109.112L98.7647 7.70795V24.4697H94.5Z" fill="#20C6B1"/>
<path d="M73.7245 24.4697V0H83.1104C84.4387 0 85.6389 0.332089 86.7109 0.996266C87.7829 1.66044 88.6335 2.55184 89.2627 3.67045C89.892 4.77741 90.2066 6.00673 90.2066 7.35838C90.2066 8.46535 90.0026 9.48492 89.5948 10.4171C89.1986 11.3376 88.6393 12.1358 87.9169 12.8116C87.2061 13.4875 86.3846 14.0002 85.4525 14.3497L91.3077 24.4697H86.3963L80.7333 14.7342H77.9892V24.4697H73.7245ZM77.9892 10.4695H82.621C83.2269 10.4695 83.7804 10.318 84.2814 10.0151C84.7825 9.71213 85.1845 9.3043 85.4874 8.79161C85.7904 8.27891 85.9418 7.70795 85.9418 7.07873C85.9418 6.43786 85.7904 5.86107 85.4874 5.34837C85.1845 4.83568 84.7825 4.42785 84.2814 4.12489C83.7804 3.82193 83.2269 3.67045 82.621 3.67045H77.9892V10.4695Z" fill="#20C6B1"/>
<path d="M53.8421 24.4697L53.8418 0H69.7831V4.26472H58.7018V9.22857H67.4934V13.4933H58.7018V20.205H69.7831V24.4697H53.8421Z" fill="#20C6B1"/>
<path d="M50.9459 0V4.26472H43.4652V24.4697H39.2005V4.26472H31.7197V0H50.9459Z" fill="#20C6B1"/>
<path d="M8.99976 24.4697V0H13.614L23.9437 16.7617V0H28.2085V24.4697H23.6117L13.2645 7.70795V24.4697H8.99976Z" fill="#20C6B1"/>
<path d="M0 24.4697V0H4.26472V24.4697H0Z" fill="#20C6B1"/>
<path d="M108.185 61.8887H103.92V35.6712H108.185V37.891C108.756 37.0986 109.455 36.4578 110.282 35.9684C111.121 35.4673 112.1 35.2168 113.219 35.2168C114.5 35.2168 115.695 35.4557 116.802 35.9334C117.909 36.4111 118.882 37.0753 119.72 37.9259C120.571 38.7649 121.229 39.7379 121.696 40.8448C122.173 41.9518 122.412 43.1403 122.412 44.4104C122.412 45.6805 122.173 46.8748 121.696 47.9935C121.229 49.1121 120.571 50.0967 119.72 50.9473C118.882 51.7863 117.909 52.4446 116.802 52.9224C115.695 53.4001 114.5 53.639 113.219 53.639C112.1 53.639 111.121 53.3943 110.282 52.9049C109.455 52.4038 108.756 51.7571 108.185 50.9648V61.8887ZM113.166 39.3242C112.281 39.3242 111.488 39.5573 110.789 40.0233C110.09 40.4778 109.542 41.0895 109.146 41.8586C108.75 42.6276 108.552 43.4782 108.552 44.4104C108.552 45.3426 108.75 46.199 109.146 46.9797C109.542 47.7488 110.09 48.3663 110.789 48.8324C111.488 49.2869 112.281 49.5141 113.166 49.5141C114.063 49.5141 114.885 49.2869 115.631 48.8324C116.376 48.378 116.971 47.7662 117.413 46.9972C117.856 46.2165 118.078 45.3542 118.078 44.4104C118.078 43.4782 117.856 42.6276 117.413 41.8586C116.971 41.0895 116.376 40.4778 115.631 40.0233C114.896 39.5573 114.075 39.3242 113.166 39.3242Z" fill="#20C6B1"/>
<path d="M94.5 35.6243H98.8346V52.9645H94.5V35.6243ZM96.7372 33.3696C96.108 33.3696 95.5778 33.1657 95.1467 32.7578C94.7156 32.3384 94.5 31.814 94.5 31.1848C94.5 30.5672 94.7156 30.0487 95.1467 29.6292C95.5778 29.2097 96.1022 29 96.7197 29C97.3373 29 97.8558 29.2097 98.2753 29.6292C98.7065 30.0487 98.922 30.5672 98.922 31.1848C98.922 31.814 98.7123 32.3384 98.2928 32.7578C97.8733 33.1657 97.3548 33.3696 96.7372 33.3696Z" fill="#20C6B1"/>
<path d="M89.4993 42.1036V53.1499H85.2346V43.2222C85.2346 42.5348 85.0656 41.9114 84.7277 41.3521C84.3898 40.7811 83.9354 40.3325 83.3644 40.0062C82.8051 39.6683 82.1817 39.4994 81.4942 39.4994C80.8068 39.4994 80.1775 39.6683 79.6066 40.0062C79.0473 40.3325 78.5987 40.7811 78.2607 41.3521C78.0422 42.0839 78.0422 42.5348 78.0422 43.2222V53.1499H73.3662V0L78 0.00012207L78.0422 37.4079C78.0422 36.8234 79.0764 36.1027 79.9037 35.7415C80.731 35.3686 81.6224 35.1822 82.5779 35.1822C83.848 35.1822 85.0074 35.4968 86.0561 36.126C87.1048 36.7436 87.9379 37.5767 88.5555 38.6254C89.1847 39.6625 89.4993 40.8219 89.4993 42.1036Z" fill="#20C6B1"/>
<path d="M61.3796 53.4653C60.4707 53.4071 59.591 53.2265 58.7404 52.9235C57.9014 52.6089 57.1557 52.1836 56.5031 51.6476C55.8506 51.1116 55.3496 50.4707 55 49.725L58.6005 48.1869C58.7404 48.4199 58.9676 48.6704 59.2822 48.9384C59.5968 49.1948 59.9697 49.4104 60.4008 49.5851C60.8436 49.7599 61.3272 49.8473 61.8515 49.8473C62.2943 49.8473 62.7138 49.7891 63.1099 49.6725C63.5178 49.5444 63.844 49.3521 64.0887 49.0958C64.3451 48.8394 64.4733 48.5073 64.4733 48.0995C64.4733 47.6684 64.3218 47.3363 64.0188 47.1032C63.7275 46.8585 63.3546 46.6779 62.9002 46.5614C62.4574 46.4332 62.0263 46.3167 61.6068 46.2118C60.4999 45.9904 59.4686 45.6467 58.5131 45.1806C57.5693 44.7145 56.8061 44.1144 56.2235 43.3803C55.6525 42.6346 55.367 41.7374 55.367 40.6887C55.367 39.5351 55.67 38.5388 56.2759 37.6999C56.8935 36.8609 57.6917 36.2142 58.6705 35.7598C59.6609 35.3053 60.7271 35.0781 61.869 35.0781C63.2556 35.0781 64.5257 35.3694 65.6793 35.952C66.8445 36.523 67.765 37.3328 68.4408 38.3815L65.0675 40.3741C64.9044 40.0944 64.6772 39.8381 64.3859 39.605C64.0946 39.3603 63.7625 39.1622 63.3896 39.0108C63.0167 38.8476 62.6264 38.7544 62.2186 38.7311C61.6942 38.7078 61.2165 38.7544 60.7853 38.8709C60.3542 38.9874 60.0046 39.1855 59.7366 39.4652C59.4803 39.7448 59.3521 40.1177 59.3521 40.5838C59.3521 41.0266 59.5269 41.3587 59.8765 41.5801C60.226 41.7898 60.6455 41.9529 61.1349 42.0695C61.6359 42.186 62.1137 42.3142 62.5681 42.454C63.5935 42.7919 64.5548 43.2056 65.452 43.6949C66.3609 44.1843 67.0892 44.7844 67.6368 45.4952C68.1845 46.206 68.4467 47.0566 68.4234 48.0471C68.4234 49.1773 68.0855 50.1678 67.4096 51.0184C66.7338 51.8573 65.8599 52.4982 64.7879 52.941C63.7275 53.3838 62.5914 53.5586 61.3796 53.4653Z" fill="#20C6B1"/>
</svg>
