<svg width="45" height="45" viewBox="0 0 45 45" fill="none" xmlns="http://www.w3.org/2000/svg">
<rect width="45" height="45" rx="8" fill="#20C6B1"/>
<g clip-path="url(#clip0_2444_3291)">
<path d="M35.9648 10.0554L33.8644 7.70042C33.1614 6.91236 32.0176 6.91236 31.3147 7.70042C31.2388 7.78889 31.197 7.90718 31.198 8.02987C31.1991 8.15257 31.2431 8.2699 31.3205 8.35667C31.3978 8.44344 31.5025 8.49273 31.6119 8.49396C31.7213 8.49518 31.8269 8.44825 31.9058 8.36323C32.2828 7.94048 32.8961 7.94048 33.2733 8.36323L35.3737 10.7182C35.7507 11.141 35.7507 11.8289 35.3737 12.2515L33.8519 13.9577L30.3839 10.0693L30.686 9.73067C30.7248 9.68716 30.7556 9.63551 30.7766 9.57866C30.7976 9.52181 30.8084 9.46088 30.8084 9.39934C30.8084 9.3378 30.7976 9.27687 30.7766 9.22002C30.7556 9.16316 30.7249 9.1115 30.686 9.06798C30.6472 9.02447 30.6012 8.98995 30.5505 8.96639C30.4998 8.94284 30.4454 8.93071 30.3905 8.93071C30.3357 8.9307 30.2813 8.94282 30.2306 8.96636C30.1799 8.9899 30.1338 9.02441 30.095 9.06792L24.3915 15.4626C24.1251 15.3436 23.8533 15.2402 23.5773 15.1529L23.2614 12.657C23.2472 12.5452 23.1976 12.4429 23.1216 12.3689C23.0455 12.2949 22.9482 12.2542 22.8475 12.2542H19.7902C19.6895 12.2542 19.5922 12.295 19.5162 12.369C19.4402 12.443 19.3905 12.5452 19.3764 12.657L19.0604 15.1529C18.4301 15.3516 17.823 15.6335 17.252 15.9928L15.4544 14.4785C15.3739 14.4107 15.2743 14.3778 15.1739 14.3857C15.0734 14.3936 14.979 14.4419 14.9078 14.5217L12.7459 16.9456C12.6747 17.0254 12.6316 17.1314 12.6245 17.244C12.6174 17.3566 12.6468 17.4682 12.7072 17.5585L14.0579 19.574C13.7374 20.2142 13.4859 20.8949 13.3088 21.6016L11.0826 21.9559C10.9829 21.9718 10.8917 22.0275 10.8257 22.1127C10.7597 22.198 10.7234 22.307 10.7234 22.4199V25.8479C10.7234 25.9607 10.7597 26.0698 10.8257 26.1551C10.8917 26.2403 10.9829 26.296 11.0826 26.3119L13.3089 26.6661C13.387 26.9754 13.4793 27.28 13.5854 27.5786L10.3855 31.1663C10.3313 31.2274 10.2931 31.304 10.2753 31.3879L9.10695 35.094L8.07246 38.3756C8.04618 38.459 8.04148 38.5491 8.05891 38.6353C8.07634 38.7216 8.11518 38.8006 8.17096 38.8632C8.22677 38.9257 8.29722 38.9692 8.37417 38.9888C8.45112 39.0083 8.53143 39.003 8.60582 38.9735L14.8381 36.5037C14.9129 36.4838 14.9813 36.441 15.0357 36.38L18.2311 32.7974C18.5023 32.9193 18.7791 33.0251 19.0603 33.1143L19.3763 35.6105C19.3905 35.7222 19.4401 35.8245 19.5161 35.8985C19.5922 35.9725 19.6895 36.0132 19.7901 36.0132H22.8475C22.9482 36.0132 23.0455 35.9725 23.1215 35.8985C23.1975 35.8245 23.2472 35.7222 23.2613 35.6105L23.5773 33.1145C24.2076 32.9159 24.8147 32.6339 25.3857 32.2747L27.1834 33.789C27.2639 33.8567 27.3635 33.8897 27.4639 33.8817C27.5643 33.8738 27.6588 33.8255 27.73 33.7457L29.8918 31.3217C29.963 31.2419 30.0061 31.136 30.0132 31.0234C30.0203 30.9108 29.9909 30.7992 29.9304 30.7089L28.5797 28.6934C28.9002 28.0532 29.1517 27.3726 29.3289 26.6658L31.555 26.3115C31.6547 26.2957 31.7459 26.24 31.8119 26.1548C31.8779 26.0695 31.9142 25.9604 31.9142 25.8475V22.4196C31.9142 22.3067 31.8778 22.1977 31.8118 22.1124C31.7458 22.0272 31.6546 21.9715 31.555 21.9556L29.3289 21.6013C29.2494 21.2858 29.1552 20.9753 29.0465 20.671L35.9648 12.9142C36.6677 12.1261 36.6677 10.8437 35.9648 10.0554ZM9.1521 37.763L9.67413 36.107L10.6291 37.1777L9.1521 37.763ZM11.5025 36.8316L9.98284 35.1278L10.8563 32.3569L13.9739 35.8522L11.5025 36.8316ZM31.0783 22.8265V25.4409L28.9365 25.7817C28.8538 25.7949 28.7765 25.8355 28.7146 25.8984C28.6527 25.9612 28.609 26.0435 28.5892 26.1344C28.4088 26.9624 28.1161 27.7545 27.7215 28.483C27.6782 28.563 27.6572 28.6558 27.6613 28.7493C27.6654 28.8428 27.6945 28.9328 27.7446 29.0076L29.0441 30.9467L27.3954 32.7954L25.6659 31.3384C25.5992 31.2821 25.5189 31.2496 25.4355 31.2449C25.3521 31.2403 25.2694 31.2638 25.198 31.3124C24.5483 31.7549 23.8418 32.083 23.1033 32.2853C23.0222 32.3075 22.9489 32.3565 22.8928 32.4259C22.8368 32.4953 22.8005 32.5819 22.7888 32.6746L22.4848 35.076H20.1531L19.8491 32.6746C19.8374 32.5819 19.8012 32.4953 19.7451 32.4259C19.689 32.3565 19.6157 32.3075 19.5346 32.2853C19.3138 32.2246 19.0956 32.1525 18.8808 32.069L21.1652 29.5078C21.2186 29.51 21.2693 29.5111 21.319 29.5111C23.9636 29.5111 26.1151 27.0988 26.1151 24.1337C26.1151 24.0037 26.1095 23.8753 26.1014 23.7476L26.1013 23.7445C26.1011 23.7412 26.1007 23.738 26.1005 23.7348C26.0954 23.6555 26.0886 23.5763 26.0804 23.4973L26.0802 23.496C25.8109 20.9539 23.9546 18.951 21.6561 18.7709C21.6521 18.7706 21.6481 18.77 21.644 18.7697L21.6414 18.7696C21.5341 18.7611 21.4265 18.7566 21.319 18.7561C18.6744 18.7561 16.5229 21.1684 16.5229 24.1335C16.5229 24.1819 16.5236 24.231 16.5251 24.2826L15.8801 25.0057C15.8413 25.0492 15.8104 25.1009 15.7894 25.1578C15.7684 25.2146 15.7577 25.2756 15.7577 25.3372C15.7576 25.4068 15.7714 25.4756 15.7981 25.5385C15.8248 25.6014 15.8637 25.6568 15.9119 25.7007C15.97 25.7536 16.0398 25.7881 16.1138 25.8006C16.1879 25.813 16.2636 25.803 16.333 25.7714C16.3848 25.7479 16.4318 25.7129 16.4712 25.6685L21.7734 19.7237C23.5829 19.9567 25.0334 21.5752 25.2499 23.6027L23.9414 25.0697C23.8649 25.158 23.8225 25.2765 23.8234 25.3996C23.8242 25.5227 23.8682 25.6405 23.9458 25.7275C24.0234 25.8145 24.1285 25.8638 24.2382 25.8648C24.348 25.8657 24.4537 25.8181 24.5325 25.7324L25.2068 24.9764C24.9015 26.75 23.6525 28.1505 22.0705 28.4928L23.3459 27.0629C23.4223 26.9746 23.4647 26.8561 23.4639 26.733C23.4631 26.6099 23.4191 26.4921 23.3415 26.4051C23.2639 26.3181 23.1588 26.2688 23.049 26.2678C22.9393 26.2669 22.8336 26.3144 22.7548 26.4002L14.7402 35.386L11.2722 31.4976L15.2845 26.999C15.3234 26.9556 15.3542 26.904 15.3752 26.8471C15.3962 26.7902 15.407 26.7293 15.4069 26.6677C15.4069 26.6062 15.3962 26.5452 15.3752 26.4884C15.3542 26.4315 15.3233 26.3798 15.2845 26.3364C15.245 26.292 15.198 26.257 15.1462 26.2335C15.0834 26.205 15.0153 26.194 14.9479 26.2014C14.8804 26.2089 14.8156 26.2346 14.759 26.2764C14.7353 26.2938 14.7134 26.314 14.6934 26.3364L14.2357 26.8495C14.1637 26.6144 14.1011 26.3759 14.0484 26.1345C14.0285 26.0435 13.9848 25.9613 13.923 25.8985C13.8611 25.8356 13.7838 25.795 13.7011 25.7818L11.5594 25.441V22.8266L13.7011 22.4857C13.7838 22.4726 13.8611 22.432 13.9229 22.3691C13.9848 22.3063 14.0285 22.2241 14.0484 22.1332C14.2288 21.3052 14.5214 20.5131 14.9161 19.7846C14.9594 19.7046 14.9804 19.6118 14.9763 19.5183C14.9721 19.4248 14.9431 19.3348 14.8929 19.2599L13.5934 17.3208L15.2422 15.4722L16.9717 16.9292C17.0385 16.9854 17.1187 17.018 17.2021 17.0226C17.2856 17.0272 17.3683 17.0037 17.4397 16.9551C18.0894 16.5126 18.7958 16.1845 19.5343 15.9822C19.6154 15.96 19.6887 15.911 19.7448 15.8416C19.8008 15.7722 19.8371 15.6856 19.8488 15.5929L20.1528 13.1915H22.4845L22.7885 15.5928C22.8002 15.6855 22.8365 15.7721 22.8925 15.8415C22.9486 15.9109 23.0219 15.9599 23.103 15.9821C23.5195 16.0968 23.9265 16.2516 24.3192 16.445L24.3207 16.4458C24.3971 16.4834 24.4727 16.5222 24.5474 16.5621L24.5516 16.5644C24.6224 16.6023 24.6923 16.6414 24.7613 16.6812C24.7801 16.6921 24.7986 16.7035 24.8172 16.7145C24.8706 16.746 24.9237 16.7778 24.9759 16.8104C25.0506 16.8572 25.1246 16.9054 25.1978 16.955C25.2692 17.0037 25.3519 17.0272 25.4353 17.0225C25.5187 17.0179 25.599 16.9853 25.6658 16.929L27.3953 15.472L29.044 17.3205L27.7445 19.2597C27.6943 19.3346 27.6653 19.4246 27.6612 19.5181C27.657 19.6117 27.678 19.7045 27.7214 19.7845C27.7655 19.8659 27.8077 19.9482 27.8493 20.0311C27.8771 20.087 27.9041 20.1437 27.931 20.2008C27.9419 20.2237 27.953 20.2465 27.9636 20.2695C27.998 20.3439 28.0313 20.4189 28.0636 20.4944L28.068 20.5046C28.1029 20.5864 28.1367 20.6689 28.1694 20.7519C28.1696 20.7526 28.1701 20.7533 28.1704 20.7541C28.3456 21.1992 28.4857 21.6606 28.5892 22.1331C28.609 22.2241 28.6527 22.3063 28.7146 22.3692C28.7765 22.432 28.8538 22.4726 28.9365 22.4858L31.0783 22.8265ZM20.5409 19.78L17.4358 23.2616C17.7479 21.5115 18.9801 20.13 20.5409 19.78ZM28.6722 19.7653C28.6421 19.7011 28.6112 19.6373 28.5797 19.5739L29.9303 17.5584C29.9908 17.4681 30.0202 17.3564 30.0131 17.2438C30.006 17.1313 29.9629 17.0253 29.8918 16.9455L27.7299 14.5216C27.6587 14.4418 27.5643 14.3934 27.4638 14.3855C27.3634 14.3775 27.2638 14.4105 27.1833 14.4784L25.3856 15.9927C25.3245 15.9544 25.2629 15.917 25.2009 15.8805L27.5967 13.1943L31.0647 17.0827L28.6722 19.7653ZM31.6559 16.4199L28.1879 12.5316L29.7928 10.7321L33.2608 14.6205L31.6559 16.4199Z" fill="white"/>
<path d="M24.0899 17.9531C24.888 18.3111 26.58 19.5424 26.9631 21.6041" stroke="white" stroke-width="4" stroke-linecap="round"/>
<ellipse cx="27.1547" cy="23.3221" rx="0.383095" ry="0.42953" fill="white"/>
<path d="M35.9648 10.0554L33.8644 7.70042C33.1614 6.91236 32.0177 6.91236 31.3147 7.70042C31.2389 7.78889 31.197 7.90718 31.1981 8.02987C31.1992 8.15257 31.2431 8.2699 31.3205 8.35667C31.3979 8.44344 31.5025 8.49273 31.612 8.49396C31.7214 8.49518 31.8269 8.44825 31.9058 8.36323C32.2829 7.94048 32.8962 7.94048 33.2733 8.36323L35.3737 10.7182C35.7508 11.141 35.7508 11.8289 35.3738 12.2515L33.852 13.9577L30.384 10.0693L30.6861 9.73067C30.7249 9.68716 30.7557 9.63551 30.7767 9.57866C30.7977 9.52181 30.8085 9.46088 30.8085 9.39934C30.8085 9.3378 30.7977 9.27687 30.7767 9.22002C30.7557 9.16316 30.7249 9.1115 30.6861 9.06798C30.6473 9.02447 30.6012 8.98995 30.5505 8.96639C30.4998 8.94284 30.4455 8.93071 30.3906 8.93071C30.3357 8.9307 30.2814 8.94282 30.2307 8.96636C30.1799 8.9899 30.1339 9.02441 30.0951 9.06792L24.3916 15.4626C24.1252 15.3436 23.8534 15.2402 23.5774 15.1529L23.2614 12.657C23.2473 12.5452 23.1977 12.4429 23.1216 12.3689C23.0456 12.2949 22.9483 12.2542 22.8476 12.2542H19.7903C19.6896 12.2542 19.5923 12.295 19.5163 12.369C19.4402 12.443 19.3906 12.5452 19.3764 12.657L19.0605 15.1529C18.4301 15.3516 17.8231 15.6335 17.252 15.9928L15.4544 14.4785C15.3739 14.4107 15.2743 14.3778 15.1739 14.3857C15.0735 14.3936 14.979 14.4419 14.9078 14.5217L12.7459 16.9456C12.6747 17.0254 12.6316 17.1314 12.6245 17.244C12.6174 17.3566 12.6468 17.4682 12.7073 17.5585L14.058 19.574C13.7375 20.2142 13.486 20.8949 13.3088 21.6016L11.0827 21.9559C10.983 21.9718 10.8918 22.0275 10.8258 22.1127C10.7598 22.198 10.7234 22.307 10.7235 22.4199V25.8479C10.7235 25.9607 10.7598 26.0698 10.8258 26.1551C10.8918 26.2403 10.983 26.296 11.0827 26.3119L13.309 26.6661C13.3871 26.9754 13.4793 27.28 13.5854 27.5786L10.3856 31.1663C10.3313 31.2274 10.2932 31.304 10.2753 31.3879L9.10701 35.094L8.07253 38.3756C8.04624 38.459 8.04154 38.5491 8.05897 38.6353C8.0764 38.7216 8.11525 38.8006 8.17102 38.8632C8.22683 38.9257 8.29728 38.9692 8.37423 38.9888C8.45118 39.0083 8.53149 39.003 8.60588 38.9735L14.8381 36.5037C14.913 36.4838 14.9814 36.441 15.0358 36.38L18.2311 32.7974C18.5024 32.9193 18.7792 33.0251 19.0604 33.1143L19.3764 35.6105C19.3905 35.7222 19.4402 35.8245 19.5162 35.8985C19.5922 35.9725 19.6895 36.0132 19.7902 36.0132H22.8476C22.9482 36.0132 23.0455 35.9725 23.1215 35.8985C23.1976 35.8245 23.2472 35.7222 23.2614 35.6105L23.5773 33.1145C24.2077 32.9159 24.8147 32.6339 25.3858 32.2747L27.1834 33.789C27.2639 33.8567 27.3635 33.8897 27.4639 33.8817C27.5643 33.8738 27.6588 33.8255 27.73 33.7457L29.8919 31.3217C29.9631 31.2419 30.0061 31.136 30.0132 31.0234C30.0203 30.9108 29.9909 30.7992 29.9305 30.7089L28.5798 28.6934C28.9003 28.0532 29.1517 27.3726 29.3289 26.6658L31.555 26.3115C31.6547 26.2957 31.7459 26.24 31.8119 26.1548C31.8779 26.0695 31.9143 25.9604 31.9142 25.8475V22.4196C31.9142 22.3067 31.8779 22.1977 31.8119 22.1124C31.7459 22.0272 31.6547 21.9715 31.555 21.9556L29.3289 21.6013C29.2495 21.2858 29.1552 20.9753 29.0465 20.671L35.9649 12.9142C36.6677 12.1261 36.6677 10.8437 35.9648 10.0554ZM9.15216 37.763L9.6742 36.107L10.6291 37.1777L9.15216 37.763ZM11.5026 36.8316L9.9829 35.1278L10.8564 32.3569L13.974 35.8522L11.5026 36.8316ZM31.0783 22.8265V25.4409L28.9366 25.7817C28.8539 25.7949 28.7766 25.8355 28.7147 25.8984C28.6528 25.9612 28.6091 26.0435 28.5893 26.1344C28.4088 26.9624 28.1162 27.7545 27.7216 28.483C27.6782 28.563 27.6572 28.6558 27.6614 28.7493C27.6655 28.8428 27.6945 28.9328 27.7447 29.0076L29.0442 30.9467L27.3955 32.7954L25.666 31.3384C25.5992 31.2821 25.519 31.2496 25.4356 31.2449C25.3522 31.2403 25.2694 31.2638 25.1981 31.3124C24.5483 31.7549 23.8419 32.083 23.1034 32.2853C23.0223 32.3075 22.949 32.3565 22.8929 32.4259C22.8368 32.4953 22.8006 32.5819 22.7889 32.6746L22.4849 35.076H20.1531L19.8492 32.6746C19.8375 32.5819 19.8012 32.4953 19.7451 32.4259C19.6891 32.3565 19.6157 32.3075 19.5346 32.2853C19.3138 32.2246 19.0957 32.1525 18.8809 32.069L21.1653 29.5078C21.2187 29.51 21.2693 29.5111 21.3191 29.5111C23.9636 29.5111 26.1152 27.0988 26.1152 24.1337C26.1152 24.0037 26.1096 23.8753 26.1014 23.7476L26.1014 23.7445C26.1012 23.7412 26.1008 23.738 26.1006 23.7348C26.0954 23.6555 26.0887 23.5763 26.0804 23.4973L26.0803 23.496C25.811 20.9539 23.9547 18.951 21.6562 18.7709C21.6521 18.7706 21.6482 18.77 21.6441 18.7697L21.6415 18.7696C21.5342 18.7611 21.4266 18.7566 21.319 18.7561C18.6744 18.7561 16.5229 21.1684 16.5229 24.1335C16.5229 24.1819 16.5236 24.231 16.5252 24.2826L15.8802 25.0057C15.8413 25.0492 15.8105 25.1009 15.7895 25.1578C15.7685 25.2146 15.7577 25.2756 15.7578 25.3372C15.7577 25.4068 15.7715 25.4756 15.7982 25.5385C15.8248 25.6014 15.8637 25.6568 15.912 25.7007C15.9701 25.7536 16.0398 25.7881 16.1139 25.8006C16.188 25.813 16.2636 25.803 16.3331 25.7714C16.3848 25.7479 16.4318 25.7129 16.4713 25.6685L21.7734 19.7237C23.5829 19.9567 25.0335 21.5752 25.2499 23.6027L23.9415 25.0697C23.865 25.158 23.8226 25.2765 23.8234 25.3996C23.8242 25.5227 23.8682 25.6405 23.9458 25.7275C24.0235 25.8145 24.1285 25.8638 24.2383 25.8648C24.3481 25.8657 24.4538 25.8181 24.5326 25.7324L25.2068 24.9764C24.9016 26.75 23.6525 28.1505 22.0706 28.4928L23.3459 27.0629C23.4224 26.9746 23.4648 26.8561 23.464 26.733C23.4632 26.6099 23.4192 26.4921 23.3416 26.4051C23.2639 26.3181 23.1589 26.2688 23.0491 26.2678C22.9393 26.2669 22.8336 26.3144 22.7548 26.4002L14.7403 35.386L11.2722 31.4976L15.2845 26.999C15.3234 26.9556 15.3543 26.904 15.3753 26.8471C15.3963 26.7902 15.407 26.7293 15.4069 26.6677C15.407 26.6062 15.3962 26.5452 15.3752 26.4884C15.3542 26.4315 15.3234 26.3798 15.2845 26.3364C15.2451 26.292 15.1981 26.257 15.1463 26.2335C15.0835 26.205 15.0154 26.194 14.948 26.2014C14.8805 26.2089 14.8157 26.2346 14.759 26.2764C14.7354 26.2938 14.7134 26.314 14.6934 26.3364L14.2358 26.8495C14.1637 26.6144 14.1012 26.3759 14.0484 26.1345C14.0286 26.0435 13.9849 25.9613 13.923 25.8985C13.8611 25.8356 13.7839 25.795 13.7012 25.7818L11.5594 25.441V22.8266L13.7012 22.4857C13.7839 22.4726 13.8611 22.432 13.923 22.3691C13.9849 22.3063 14.0286 22.2241 14.0484 22.1332C14.2288 21.3052 14.5215 20.5131 14.9161 19.7846C14.9595 19.7046 14.9804 19.6118 14.9763 19.5183C14.9722 19.4248 14.9432 19.3348 14.893 19.2599L13.5934 17.3208L15.2423 15.4722L16.9718 16.9292C17.0385 16.9854 17.1188 17.018 17.2022 17.0226C17.2856 17.0272 17.3683 17.0037 17.4397 16.9551C18.0894 16.5126 18.7959 16.1845 19.5343 15.9822C19.6155 15.96 19.6888 15.911 19.7448 15.8416C19.8009 15.7722 19.8371 15.6856 19.8489 15.5929L20.1529 13.1915H22.4846L22.7886 15.5928C22.8003 15.6855 22.8365 15.7721 22.8926 15.8415C22.9486 15.9109 23.0219 15.9599 23.103 15.9821C23.5196 16.0968 23.9265 16.2516 24.3193 16.445L24.3207 16.4458C24.3972 16.4834 24.4727 16.5222 24.5475 16.5621L24.5517 16.5644C24.6225 16.6023 24.6923 16.6414 24.7614 16.6812C24.7801 16.6921 24.7986 16.7035 24.8173 16.7145C24.8706 16.746 24.9238 16.7778 24.9759 16.8104C25.0506 16.8572 25.1246 16.9054 25.1979 16.955C25.2692 17.0037 25.352 17.0272 25.4354 17.0225C25.5188 17.0179 25.5991 16.9853 25.6658 16.929L27.3954 15.472L29.0441 17.3205L27.7446 19.2597C27.6944 19.3346 27.6653 19.4246 27.6612 19.5181C27.6571 19.6117 27.6781 19.7045 27.7215 19.7845C27.7656 19.8659 27.8078 19.9482 27.8493 20.0311C27.8772 20.087 27.9042 20.1437 27.9311 20.2008C27.942 20.2237 27.953 20.2465 27.9637 20.2695C27.998 20.3439 28.0314 20.4189 28.0637 20.4944L28.0681 20.5046C28.103 20.5864 28.1368 20.6689 28.1694 20.7519C28.1697 20.7526 28.1701 20.7533 28.1705 20.7541C28.3457 21.1992 28.4858 21.6606 28.5893 22.1331C28.6091 22.2241 28.6528 22.3063 28.7147 22.3692C28.7766 22.432 28.8539 22.4726 28.9366 22.4858L31.0783 22.8265ZM20.541 19.78L17.4358 23.2616C17.748 21.5115 18.9802 20.13 20.541 19.78ZM28.6722 19.7653C28.6421 19.7011 28.6113 19.6373 28.5798 19.5739L29.9304 17.5584C29.9909 17.4681 30.0202 17.3564 30.0132 17.2438C30.0061 17.1313 29.963 17.0253 29.8918 16.9455L27.73 14.5216C27.6588 14.4418 27.5643 14.3934 27.4639 14.3855C27.3635 14.3775 27.2638 14.4105 27.1834 14.4784L25.3857 15.9927C25.3246 15.9544 25.2629 15.917 25.2009 15.8805L27.5968 13.1943L31.0648 17.0827L28.6722 19.7653ZM31.656 16.4199L28.188 12.5316L29.7929 10.7321L33.2609 14.6205L31.656 16.4199Z" fill="white"/>
<path d="M24.09 17.9531C24.8881 18.3111 26.5801 19.5424 26.9632 21.6041" stroke="white" stroke-width="4" stroke-linecap="round"/>
<ellipse cx="27.1547" cy="23.3221" rx="0.383095" ry="0.42953" fill="white"/>
</g>
<defs>
<clipPath id="clip0_2444_3291">
<rect width="28.5405" height="32" fill="white" transform="translate(8 7)"/>
</clipPath>
</defs>
</svg>
