<svg width="54" height="54" viewBox="0 0 54 54" fill="none" xmlns="http://www.w3.org/2000/svg">
<g clip-path="url(#clip0_14_1824)">
<path d="M18.8371 39.8455H8.1681C6.64276 39.8455 5.82408 41.7056 6.93681 42.8187L17.6058 53.4877C18.7032 54.5847 20.579 53.802 20.579 52.2564V41.5874C20.579 40.625 19.7995 39.8455 18.8371 39.8455ZM42.3525 0H11.6519C8.76578 0 6.42622 2.33956 6.42622 5.22564V36.6306C6.42622 37.5952 7.21007 38.3758 8.17572 38.3725C9.77825 38.366 13.0563 38.3758 19.9443 38.3758C21.107 38.3758 22.0487 39.3175 22.0487 40.4802C22.0487 47.3693 22.0585 50.6462 22.052 52.2488C22.0487 53.2144 22.8293 53.9983 23.7938 53.9983H42.3525C45.2386 53.9983 47.5781 51.6587 47.5781 48.7726V5.22564C47.5781 2.33956 45.2386 0 42.3525 0ZM26.9303 5.48365C30.1637 5.48365 32.7939 8.11389 32.7939 11.3473C32.7939 14.5795 30.1637 17.2098 26.9303 17.2098C23.698 17.2098 21.0678 14.5795 21.0678 11.3473C21.0678 8.11389 23.698 5.48365 26.9303 5.48365ZM18.111 23.3532C18.111 21.8475 18.9993 20.4769 20.3743 19.8629C23.4112 18.5071 23.3653 18.4781 23.8472 18.4781H29.9743C30.4645 18.4781 30.4443 18.5218 33.4471 19.8629C34.8232 20.4769 35.7116 21.8475 35.7116 23.3532V25.7417C35.7116 26.7041 34.9321 27.4836 33.9697 27.4836H19.8528C18.8905 27.4836 18.111 26.7041 18.111 25.7417V23.3532ZM36.8002 45.8332H26.6756C25.7132 45.8332 24.9337 45.0537 24.9337 44.0913C24.9337 43.1289 25.7132 42.3494 26.6756 42.3494H36.8002C37.7626 42.3494 38.5421 43.1289 38.5421 44.0913C38.5421 45.0537 37.7626 45.8332 36.8002 45.8332ZM36.8002 35.8174H17.0952C16.1328 35.8174 15.3534 35.0379 15.3534 34.0755C15.3534 33.1131 16.1328 32.3336 17.0952 32.3336H36.8002C37.7626 32.3336 38.5421 33.1131 38.5421 34.0755C38.5421 35.0379 37.7626 35.8174 36.8002 35.8174Z" fill="#20C6B1"/>
</g>
<defs>
<clipPath id="clip0_14_1824">
<rect width="54" height="54" fill="white"/>
</clipPath>
</defs>
</svg>
