<svg width="73" height="72" viewBox="0 0 73 72" fill="none" xmlns="http://www.w3.org/2000/svg">
<path fill-rule="evenodd" clip-rule="evenodd" d="M8.5 72H64.5C68.9183 72 72.5 68.4183 72.5 64V8C72.5 3.58172 68.9183 0 64.5 0H8.5C4.08172 0 0.5 3.58172 0.5 8V64C0.5 68.4183 4.08172 72 8.5 72Z" fill="#0863FF"/>
<path fill-rule="evenodd" clip-rule="evenodd" d="M43.1718 26.006H55.883V22.3643H43.1718V26.006ZM46.1831 33.9522C45.3731 34.7763 44.8623 35.8928 44.6534 37.3016H54.5396C54.4352 35.7981 53.9216 34.6622 53.0128 33.8798C52.0928 33.103 50.9611 32.716 49.6064 32.716C48.1389 32.716 46.993 33.1281 46.1831 33.9522ZM54.7626 29.0631C56.295 29.7369 57.5566 30.806 58.55 32.265C59.4559 33.5513 60.0373 35.0436 60.3026 36.7392C60.4578 37.7304 60.5199 39.1671 60.4945 41.0353H44.5123C44.6083 43.2042 45.3646 44.7271 46.8096 45.5986C47.6845 46.1415 48.7372 46.4144 49.9733 46.4144C51.2743 46.4144 52.3383 46.0831 53.1539 45.4232C53.6026 45.064 53.9978 44.5684 54.3364 43.9336H60.1925C60.0373 45.2144 59.3261 46.5202 58.0674 47.8455C56.1031 49.9476 53.3515 51 49.8152 51C46.8943 51 44.3176 50.1146 42.0909 48.3383C39.8528 46.5647 38.7409 43.6747 38.7409 39.6766C38.7409 35.9262 39.7484 33.0501 41.7607 31.0483C43.7785 29.052 46.3891 28.0469 49.6036 28.0469C51.5142 28.0469 53.2329 28.3865 54.7626 29.0631ZM18.4125 37.3796V45.1838H25.6148C26.9017 45.1838 27.9064 45.0111 28.6205 44.6687C29.9215 44.0283 30.5706 42.8144 30.5706 41.0158C30.5706 39.49 29.9441 38.4459 28.6825 37.8752C27.977 37.5578 26.9864 37.3907 25.7164 37.3796H18.4125ZM18.4125 26.0812V32.5378H25.6261C26.9102 32.5378 27.9572 32.2956 28.7644 31.8111C29.5659 31.3267 29.9695 30.4691 29.9695 29.2441C29.9695 27.877 29.4389 26.9777 28.3777 26.5378C27.4577 26.2343 26.2893 26.0812 24.8697 26.0812H18.4125ZM34.5217 24.1183C35.4276 25.3629 35.882 26.8497 35.882 28.5842C35.882 30.3689 35.4276 31.8084 34.5104 32.8942C33.9968 33.5012 33.2432 34.058 32.247 34.5592C33.7597 35.1049 34.8999 35.9652 35.676 37.1429C36.4436 38.3179 36.8303 39.749 36.8303 41.4306C36.8303 43.1652 36.39 44.7216 35.5066 46.097C34.9479 47.0074 34.2479 47.7759 33.4069 48.3995C32.4615 49.1151 31.3467 49.6023 30.057 49.8696C28.7672 50.1341 27.373 50.2622 25.866 50.2622H12.5V21H26.834C30.4521 21.0529 33.0118 22.0914 34.5217 24.1183Z" fill="white"/>
</svg>
