<svg width="58" height="56" viewBox="0 0 58 56" fill="none" xmlns="http://www.w3.org/2000/svg">
<path d="M36.4265 4.66699H21.6002C8.05237 4.66699 4.83337 7.77733 4.83337 20.83V35.1473C4.83337 48.2233 8.03062 51.3337 21.5736 51.3337H36.4023C49.9453 51.3337 53.1667 48.2467 53.1667 35.1707V20.8557C53.1667 7.77499 49.9695 4.66699 36.4265 4.66699ZM43.8529 37.9637H40.327C38.993 37.9637 38.5918 36.9207 36.1993 34.6107C34.1113 32.667 33.2292 32.4243 32.7 32.4243C31.9701 32.4243 31.7695 32.618 31.7695 33.591V36.6523C31.7695 37.4807 31.4916 37.966 29.2514 37.966C27.0772 37.8249 24.9689 37.1872 23.1 36.1052C21.2311 35.0233 19.6552 33.5282 18.502 31.743C15.7644 28.453 13.8595 24.5916 12.9389 20.466C12.9389 19.955 13.1395 19.493 14.1472 19.493H17.6731C18.5794 19.493 18.9056 19.8827 19.2585 20.781C20.9695 25.6437 23.8888 29.8717 25.073 29.8717C25.5273 29.8717 25.7255 29.678 25.7255 28.5837V23.5763C25.5756 21.292 24.319 21.0983 24.319 20.2723C24.3351 20.0545 24.4385 19.8512 24.6072 19.7057C24.776 19.5603 24.9968 19.4839 25.2228 19.493H30.7618C31.5182 19.493 31.7695 19.857 31.7695 20.732V27.4893C31.7695 28.2197 32.0958 28.4623 32.323 28.4623C32.7773 28.4623 33.1277 28.2197 33.959 27.417C35.7446 25.3145 37.2035 22.9722 38.2897 20.4637C38.4007 20.1623 38.6108 19.9044 38.8879 19.7291C39.165 19.5538 39.4938 19.4709 39.8243 19.493H43.3502C44.4063 19.493 44.631 20.004 44.4063 20.732C43.1242 23.505 41.5379 26.1373 39.6745 28.5837C39.295 29.1437 39.1428 29.4353 39.6745 30.091C40.0249 30.602 41.2598 31.5983 42.0911 32.5457C43.2992 33.7092 44.3024 35.0553 45.0612 36.531C45.3633 37.4783 44.8582 37.9637 43.8529 37.9637Z" fill="white"/>
</svg>
