<svg width="29" height="37" viewBox="0 0 29 37" fill="none" xmlns="http://www.w3.org/2000/svg">
<path d="M27.4979 36.0681C27.3167 36.0681 27.135 36.0247 26.9687 35.9374L14.6646 29.4945L2.36043 35.9374C1.99927 36.1273 1.56689 36.1097 1.22168 35.8911C0.875326 35.6732 0.664551 35.2853 0.664551 34.8681V5.10504C0.664551 2.32772 2.86117 0.0683594 5.56136 0.0683594H23.7677C26.4679 0.0683594 28.6646 2.32772 28.6646 5.10504V34.8681C28.6646 35.2853 28.4538 35.6732 28.1074 35.8911C27.9211 36.0089 27.7098 36.0681 27.4979 36.0681ZM14.6646 26.948C14.8463 26.948 15.0274 26.9914 15.1938 27.0787L26.3312 32.9105V5.10504C26.3312 3.65134 25.1811 2.46834 23.7677 2.46834H5.56136C4.14803 2.46834 2.99788 3.65134 2.99788 5.10504V32.9105L14.1353 27.0787C14.3017 26.9914 14.4828 26.948 14.6646 26.948Z" fill="#A1A1AA"/>
</svg>
