<svg width="30" height="36" viewBox="0 0 30 36" fill="none" xmlns="http://www.w3.org/2000/svg">
<path d="M28.0998 35.9997C27.9135 35.9997 27.7266 35.9564 27.5555 35.8691L14.8999 29.4261L2.24432 35.8691C1.87284 36.0589 1.42812 36.0413 1.07304 35.8228C0.716795 35.6048 0.5 35.2169 0.5 34.7997V5.03668C0.5 2.25936 2.75936 0 5.53668 0H24.2631C27.0404 0 29.2998 2.25936 29.2998 5.03668V34.7997C29.2998 35.2169 29.083 35.6048 28.7267 35.8228C28.5351 35.9405 28.3178 35.9997 28.0998 35.9997ZM14.8999 26.8797C15.0868 26.8797 15.2731 26.923 15.4442 27.0103L26.8998 32.8421V5.03668C26.8998 3.58298 25.7168 2.39998 24.2631 2.39998H5.53668C4.08298 2.39998 2.89998 3.58298 2.89998 5.03668V32.8421L14.3556 27.0103C14.5267 26.923 14.713 26.8797 14.8999 26.8797Z" fill="black"/>
</svg>
