<svg width="100" height="62" viewBox="0 0 100 62" fill="none" xmlns="http://www.w3.org/2000/svg">
<path d="M73.7245 24.4697V0H83.1104C84.4387 0 85.6389 0.332089 86.7109 0.996266C87.7829 1.66044 88.6335 2.55184 89.2627 3.67045C89.892 4.77741 90.2066 6.00673 90.2066 7.35838C90.2066 8.46535 90.0026 9.48492 89.5948 10.4171C89.1986 11.3376 88.6393 12.1358 87.9169 12.8116C87.2061 13.4875 86.3846 14.0002 85.4525 14.3497L91.3077 24.4697H86.3963L80.7333 14.7342H77.9892V24.4697H73.7245ZM77.9892 10.4695H82.621C83.2269 10.4695 83.7804 10.318 84.2814 10.0151C84.7825 9.71213 85.1845 9.3043 85.4874 8.79161C85.7904 8.27891 85.9418 7.70795 85.9418 7.07873C85.9418 6.43786 85.7904 5.86107 85.4874 5.34837C85.1845 4.83568 84.7825 4.42785 84.2814 4.12489C83.7804 3.82193 83.2269 3.67045 82.621 3.67045H77.9892V10.4695Z" fill="#20C6B1"/>
<path d="M53.8421 24.4697L53.8418 0H69.7831V4.26472H58.7019V9.22857H67.4935V13.4933H58.7019V20.205H69.7831V24.4697H53.8421Z" fill="#20C6B1"/>
<path d="M50.9455 0V4.26472H43.4648V24.4697H39.2001V4.26472H31.7193V0H50.9455Z" fill="#20C6B1"/>
<path d="M8.9998 24.4697V0H13.6141L23.9438 16.7617V0H28.2085V24.4697H23.6117L13.2645 7.70795V24.4697H8.9998Z" fill="#20C6B1"/>
<path d="M0 24.4697V0H4.26472V24.4697H0Z" fill="#20C6B1"/>
<path d="M85.7726 61.8887H81.5079V35.6712H85.7726V37.891C86.3436 37.0986 87.0427 36.4578 87.87 35.9684C88.709 35.4673 89.6878 35.2168 90.8064 35.2168C92.0881 35.2168 93.2825 35.4557 94.3894 35.9334C95.4964 36.4111 96.4694 37.0753 97.3083 37.9259C98.1589 38.7649 98.8173 39.7379 99.2834 40.8448C99.7611 41.9518 100 43.1403 100 44.4104C100 45.6805 99.7611 46.8748 99.2834 47.9935C98.8173 49.1121 98.1589 50.0967 97.3083 50.9473C96.4694 51.7863 95.4964 52.4446 94.3894 52.9224C93.2825 53.4001 92.0881 53.639 90.8064 53.639C89.6878 53.639 88.709 53.3943 87.87 52.9049C87.0427 52.4038 86.3436 51.7571 85.7726 50.9648V61.8887ZM90.7539 39.3242C89.8684 39.3242 89.076 39.5573 88.3769 40.0233C87.6778 40.4778 87.1301 41.0895 86.7339 41.8586C86.3378 42.6276 86.1397 43.4782 86.1397 44.4104C86.1397 45.3426 86.3378 46.199 86.7339 46.9797C87.1301 47.7488 87.6778 48.3663 88.3769 48.8324C89.076 49.2869 89.8684 49.5141 90.7539 49.5141C91.6512 49.5141 92.4726 49.2869 93.2184 48.8324C93.9641 48.378 94.5584 47.7662 95.0012 46.9972C95.444 46.2165 95.6654 45.3542 95.6654 44.4104C95.6654 43.4782 95.444 42.6276 95.0012 41.8586C94.5584 41.0895 93.9641 40.4778 93.2184 40.0233C92.4843 39.5573 91.6628 39.3242 90.7539 39.3242Z" fill="#20C6B1"/>
<path d="M73.6469 35.8489H77.9815V53.1891H73.6469V35.8489ZM75.8841 33.5942C75.2549 33.5942 74.7247 33.3903 74.2935 32.9825C73.8624 32.563 73.6469 32.0386 73.6469 31.4094C73.6469 30.7918 73.8624 30.2733 74.2935 29.8538C74.7247 29.4343 75.249 29.2246 75.8666 29.2246C76.4842 29.2246 77.0027 29.4343 77.4222 29.8538C77.8533 30.2733 78.0689 30.7918 78.0689 31.4094C78.0689 32.0386 77.8591 32.563 77.4396 32.9825C77.0202 33.3903 76.5016 33.5942 75.8841 33.5942Z" fill="#20C6B1"/>
<path d="M69.907 42.1036V53.1499H65.6423V43.2222C65.6423 42.5348 65.4733 41.9114 65.1354 41.3521C64.7975 40.7811 64.3431 40.3325 63.7721 40.0062C63.2128 39.6683 62.5894 39.4994 61.9019 39.4994C61.2144 39.4994 60.5852 39.6683 60.0143 40.0062C59.455 40.3325 59.0063 40.7811 58.6684 41.3521C58.4499 42.0839 58.4499 42.5348 58.4499 43.2222V53.1499H53.7739V0H58.179L58.4499 37.4079C58.4499 36.8234 59.4841 36.1027 60.3114 35.7415C61.1387 35.3686 62.0301 35.1822 62.9856 35.1822C64.2557 35.1822 65.4151 35.4968 66.4638 36.126C67.5125 36.7436 68.3456 37.5767 68.9632 38.6254C69.5924 39.6625 69.907 40.8219 69.907 42.1036Z" fill="#20C6B1"/>
<path d="M43.7875 53.4644C42.8786 53.4061 41.9989 53.2255 41.1483 52.9225C40.3093 52.6079 39.5636 52.1826 38.9111 51.6466C38.2585 51.1106 37.7575 50.4697 37.4079 49.724L41.0085 48.1859C41.1483 48.4189 41.3755 48.6695 41.6901 48.9375C42.0047 49.1938 42.3776 49.4094 42.8087 49.5842C43.2515 49.759 43.7351 49.8463 44.2594 49.8463C44.7022 49.8463 45.1217 49.7881 45.5179 49.6716C45.9257 49.5434 46.252 49.3511 46.4967 49.0948C46.753 48.8384 46.8812 48.5063 46.8812 48.0985C46.8812 47.6674 46.7297 47.3353 46.4268 47.1022C46.1354 46.8576 45.7626 46.6769 45.3081 46.5604C44.8654 46.4322 44.4342 46.3157 44.0147 46.2109C42.9078 45.9895 41.8766 45.6457 40.9211 45.1796C39.9772 44.7135 39.214 44.1135 38.6314 43.3794C38.0605 42.6336 37.775 41.7364 37.775 40.6877C37.775 39.5341 38.0779 38.5379 38.6838 37.6989C39.3014 36.8599 40.0996 36.2132 41.0784 35.7588C42.0688 35.3044 43.135 35.0771 44.2769 35.0771C45.6635 35.0771 46.9336 35.3685 48.0872 35.9511C49.2524 36.522 50.1729 37.3319 50.8488 38.3806L47.4755 40.3731C47.3123 40.0934 47.0851 39.8371 46.7938 39.604C46.5025 39.3593 46.1704 39.1613 45.7975 39.0098C45.4247 38.8466 45.0343 38.7534 44.6265 38.7301C44.1021 38.7068 43.6244 38.7534 43.1933 38.8699C42.7621 38.9865 42.4126 39.1846 42.1446 39.4642C41.8882 39.7439 41.76 40.1167 41.76 40.5828C41.76 41.0256 41.9348 41.3577 42.2844 41.5791C42.634 41.7888 43.0534 41.952 43.5428 42.0685C44.0439 42.185 44.5216 42.3132 44.976 42.453C46.0014 42.7909 46.9628 43.2046 47.86 43.694C48.7689 44.1834 49.4971 44.7835 50.0448 45.4942C50.5924 46.205 50.8546 47.0556 50.8313 48.0461C50.8313 49.1763 50.4934 50.1668 49.8176 51.0174C49.1417 51.8564 48.2678 52.4972 47.1958 52.94C46.1354 53.3828 44.9994 53.5576 43.7875 53.4644Z" fill="#20C6B1"/>
</svg>
