<svg width="58" height="58" viewBox="0 0 58 58" fill="none" xmlns="http://www.w3.org/2000/svg">
<path d="M36.4265 4.83301H21.6002C8.05237 4.83301 4.83337 8.05442 4.83337 21.5733V36.4019C4.83337 49.9449 8.03062 53.1663 21.5736 53.1663H36.4023C49.9453 53.1663 53.1667 49.9691 53.1667 36.4261V21.5998C53.1667 8.05201 49.9695 4.83301 36.4265 4.83301ZM43.8529 39.3188H40.327C38.993 39.3188 38.5918 38.2386 36.1993 35.8461C34.1113 33.833 33.2292 33.5817 32.7 33.5817C31.9701 33.5817 31.7695 33.7823 31.7695 34.79V37.9607C31.7695 38.8186 31.4916 39.3213 29.2514 39.3213C27.0772 39.1751 24.9689 38.5146 23.1 37.394C21.2311 36.2735 19.6552 34.7249 18.502 32.876C15.7644 29.4685 13.8595 25.4692 12.9389 21.1963C12.9389 20.667 13.1395 20.1885 14.1472 20.1885H17.6731C18.5794 20.1885 18.9056 20.5921 19.2585 21.5225C20.9695 26.5588 23.8888 30.9378 25.073 30.9378C25.5273 30.9378 25.7255 30.7373 25.7255 29.6038V24.4177C25.5756 22.0518 24.319 21.8512 24.319 20.9957C24.3351 20.77 24.4385 20.5595 24.6072 20.4089C24.776 20.2582 24.9968 20.1791 25.2228 20.1885H30.7618C31.5182 20.1885 31.7695 20.5655 31.7695 21.4718V28.4704C31.7695 29.2268 32.0958 29.4782 32.323 29.4782C32.7773 29.4782 33.1277 29.2268 33.959 28.3955C35.7446 26.218 37.2035 23.7919 38.2897 21.1938C38.4007 20.8818 38.6108 20.6146 38.8879 20.4331C39.165 20.2515 39.4938 20.1657 39.8243 20.1885H43.3502C44.4063 20.1885 44.631 20.7178 44.4063 21.4718C43.1242 24.3438 41.5379 27.0701 39.6745 29.6038C39.295 30.1838 39.1428 30.4859 39.6745 31.165C40.0249 31.6943 41.2598 32.7262 42.0911 33.7073C43.2992 34.9124 44.3024 36.3066 45.0612 37.835C45.3633 38.8162 44.8582 39.3188 43.8529 39.3188Z" fill="white"/>
</svg>
