<svg width="52" height="52" viewBox="0 0 52 52" fill="none" xmlns="http://www.w3.org/2000/svg">
<path d="M40.6861 24.5781C34.4476 24.5781 29.3722 29.6535 29.3722 35.892C29.3722 42.1306 34.4476 47.2063 40.6861 47.2063C46.9246 47.2062 52 42.131 52 35.892C52 29.6535 46.9242 24.5781 40.6861 24.5781ZM43.9495 37.4154H42.2096V39.1555C42.2096 39.9969 41.5276 40.6789 40.6861 40.6789C39.8446 40.6789 39.1627 39.9969 39.1627 39.1555V37.4154H37.4226C36.5812 37.4154 35.8992 36.7335 35.8992 35.892C35.8992 35.051 36.5812 34.3685 37.4226 34.3685H39.1627V32.6286C39.1627 31.7874 39.8446 31.1051 40.6861 31.1051C41.5276 31.1051 42.2096 31.7874 42.2096 32.6286V34.3685H43.9495C44.7911 34.3685 45.473 35.051 45.473 35.892C45.473 36.7335 44.7911 37.4154 43.9495 37.4154ZM16.2096 22.7297C22.4481 22.7297 27.5234 17.6541 27.5234 11.4155C27.5234 5.17695 22.4476 0.101562 16.2096 0.101562C9.971 0.101562 4.89521 5.17695 4.89521 11.4154C4.89521 17.6544 9.971 22.7297 16.2096 22.7297Z" fill="#20C6B1"/>
<path d="M29.6007 26.7724C28.4551 25.0954 27.0071 23.6465 25.3307 22.5C22.8488 24.5464 19.6702 25.777 16.2096 25.777C12.7488 25.777 9.57024 24.5464 7.08795 22.5C2.81237 25.4215 0 30.3345 0 35.8923V41.6037C0 44.6934 2.51327 47.2066 5.60259 47.2066H26.8157C28.1788 47.2066 29.4294 46.7171 30.4017 45.9049C27.8809 43.3158 26.325 39.7827 26.325 35.8922C26.325 32.4324 27.5551 29.2543 29.6007 26.7724Z" fill="#20C6B1"/>
</svg>
