<svg width="55" height="54" viewBox="0 0 55 54" fill="none" xmlns="http://www.w3.org/2000/svg">
<path d="M34.081 4.5H20.2772C7.66375 4.5 4.66675 7.49925 4.66675 20.0858V33.8918C4.66675 46.5007 7.6435 49.5 20.2525 49.5H34.0585C46.6675 49.5 49.6667 46.5233 49.6667 33.9142V20.1105C49.6667 7.497 46.69 4.5 34.081 4.5ZM40.9952 36.6075H37.7125C36.4705 36.6075 36.097 35.6018 33.8695 33.3743C31.9255 31.5 31.1042 31.266 30.6115 31.266C29.932 31.266 29.7452 31.4527 29.7452 32.391V35.343C29.7452 36.1418 29.4865 36.6097 27.4007 36.6097C25.3765 36.4737 23.4136 35.8587 21.6736 34.8154C19.9336 33.7722 18.4664 32.3304 17.3927 30.609C14.8439 27.4365 13.0704 23.713 12.2132 19.7347C12.2132 19.242 12.4 18.7965 13.3382 18.7965H16.621C17.4647 18.7965 17.7685 19.1723 18.097 20.0385C19.69 24.7275 22.408 28.8045 23.5105 28.8045C23.9335 28.8045 24.118 28.6178 24.118 27.5625V22.734C23.9785 20.5312 22.8085 20.3445 22.8085 19.548C22.8235 19.3379 22.9198 19.1419 23.0769 19.0017C23.234 18.8614 23.4396 18.7878 23.65 18.7965H28.807C29.5112 18.7965 29.7452 19.1475 29.7452 19.9913V26.5072C29.7452 27.2115 30.049 27.4455 30.2605 27.4455C30.6835 27.4455 31.0097 27.2115 31.7837 26.4375C33.4462 24.4101 34.8044 22.1514 35.8157 19.7325C35.9191 19.4419 36.1147 19.1932 36.3727 19.0242C36.6307 18.8552 36.9368 18.7752 37.2445 18.7965H40.5272C41.5105 18.7965 41.7197 19.2893 41.5105 19.9913C40.3168 22.6652 38.8399 25.2035 37.105 27.5625C36.7517 28.1025 36.61 28.3837 37.105 29.016C37.4312 29.5087 38.581 30.4695 39.355 31.383C40.4798 32.5049 41.4138 33.803 42.1202 35.226C42.4015 36.1395 41.9312 36.6075 40.9952 36.6075Z" fill="white"/>
</svg>
