<svg width="47" height="54" viewBox="0 0 47 54" fill="none" xmlns="http://www.w3.org/2000/svg">
<path d="M9.66228 26.8523C9.66228 29.4785 10.3967 32.0414 11.7815 34.2457L12.1067 34.773L10.7114 39.8988L15.9464 38.5172L16.45 38.823C18.5692 40.0887 21.0031 40.7637 23.4895 40.7637H23.5C31.1165 40.7637 37.4846 34.5305 37.4846 26.8629C37.4846 23.1504 35.89 19.6594 33.2777 17.0332C30.6549 14.3965 27.1929 12.9516 23.5 12.9516C15.873 12.9516 9.67277 19.1848 9.66228 26.8523ZM28.8295 34.8047C27.5076 35.0051 26.4795 34.8996 23.8462 33.7605C19.9855 32.0836 17.3627 28.3289 16.8277 27.5695C16.7857 27.5062 16.7542 27.4746 16.7438 27.4535C16.5339 27.1793 15.0442 25.1859 15.0442 23.1293C15.0442 21.1887 15.9884 20.1867 16.429 19.7227C16.4605 19.691 16.4815 19.6699 16.5025 19.6383C16.8801 19.2164 17.3312 19.1109 17.6145 19.1109C17.8873 19.1109 18.1705 19.1109 18.4118 19.1215H18.4958C18.7371 19.1215 19.0413 19.1215 19.3455 19.8387C19.4714 20.1445 19.6603 20.6086 19.8596 21.0832C20.2058 21.927 20.5625 22.8023 20.6254 22.9395C20.7304 23.1504 20.8038 23.393 20.6569 23.6672C20.3002 24.3844 19.933 24.7641 19.6813 25.0383C19.356 25.3758 19.2092 25.534 19.44 25.9453C21.0451 28.7191 22.6502 29.6789 25.0946 30.9129C25.5143 31.1238 25.7556 31.0922 25.9969 30.8074C26.2382 30.5332 27.0355 29.584 27.3083 29.1727C27.581 28.7508 27.8643 28.8246 28.242 28.9617C28.6196 29.0988 30.6654 30.1113 31.085 30.3223C31.169 30.3645 31.2424 30.3961 31.3054 30.4277C31.5991 30.5754 31.7984 30.6703 31.8824 30.8074C31.9768 31.0078 31.9768 31.8516 31.6306 32.8219C31.2844 33.8027 29.6268 34.6887 28.8295 34.8047ZM47 10.125C47 6.40195 43.9891 3.375 40.2857 3.375H6.71429C3.01094 3.375 0 6.40195 0 10.125V43.875C0 47.598 3.01094 50.625 6.71429 50.625H40.2857C43.9891 50.625 47 47.598 47 43.875V10.125ZM15.5373 41.5441L6.71429 43.875L9.07478 35.2055C7.61652 32.6742 6.85067 29.7949 6.85067 26.8418C6.86116 17.6238 14.3203 10.125 23.4895 10.125C27.9377 10.125 32.1132 11.8652 35.2605 15.0293C38.3973 18.1934 40.2857 22.391 40.2857 26.8629C40.2857 36.0809 32.6587 43.5797 23.4895 43.5797C20.6989 43.5797 17.9607 42.873 15.5373 41.5441Z" fill="white"/>
</svg>
